<?xml version="1.0" standalone="no"?>
<!DOCTYPE svg PUBLIC "-//W3C//DTD SVG 20010904//EN"
 "http://www.w3.org/TR/2001/REC-SVG-20010904/DTD/svg10.dtd">
<svg version="1.0" xmlns="http://www.w3.org/2000/svg"
 width="1250.000000pt" height="1250.000000pt" viewBox="0 0 1250.000000 1250.000000"
 preserveAspectRatio="xMidYMid meet">
<metadata>
Created by potrace 1.11, written by Peter Selinger 2001-2013
</metadata>
<g transform="translate(0.000000,1250.000000) scale(0.100000,-0.100000)"
fill="#000000" stroke="none">
<path d="M5935 10555 c-767 -70 -1506 -309 -2145 -693 -439 -264 -866 -616
-1192 -982 -1033 -1161 -1477 -2719 -1212 -4254 83 -483 294 -1115 390 -1169
20 -11 60 15 70 45 3 13 10 25 14 28 12 8 110 208 136 275 58 155 86 220 152
355 39 80 87 192 107 250 20 58 50 132 66 165 44 93 109 246 124 290 17 52 68
174 86 205 8 14 41 70 75 125 33 55 70 125 81 155 12 30 42 109 67 175 25 67
46 124 46 128 0 10 47 110 165 352 57 116 114 235 128 265 13 30 48 103 76
162 28 59 51 110 51 114 0 4 7 15 15 24 9 9 44 86 79 171 86 207 206 453 235
482 6 6 11 21 11 32 0 44 43 146 161 385 67 135 125 254 130 265 39 95 90 193
108 209 12 11 31 38 42 60 43 88 86 156 93 149 4 -4 4 0 1 9 -7 18 30 98 45
98 5 0 25 14 43 30 26 22 45 30 74 30 34 0 57 -13 168 -96 72 -53 154 -113
183 -135 29 -21 55 -39 57 -39 3 0 35 -19 72 -42 88 -54 338 -177 432 -214 40
-15 68 -30 61 -32 -11 -4 -65 9 -115 28 -11 4 -38 13 -60 19 -63 19 -113 40
-218 92 -54 27 -107 49 -117 49 -11 0 -20 7 -20 15 0 9 -9 15 -25 15 -14 0
-25 5 -25 11 0 6 -7 9 -14 6 -10 -4 -13 -1 -9 9 3 7 0 14 -6 14 -21 0 -83 48
-72 55 6 3 11 12 11 18 0 7 -5 4 -11 -5 -5 -10 -14 -18 -18 -18 -13 0 -51 36
-51 49 0 10 -14 15 -33 12 -4 -1 -13 3 -20 9 -7 6 -23 20 -37 31 -14 11 -41
35 -60 52 -26 24 -46 33 -79 34 -51 3 -99 -21 -107 -54 -4 -13 -10 -21 -14
-18 -4 3 -11 -7 -14 -21 -4 -15 -14 -33 -21 -41 -8 -8 -15 -25 -15 -37 0 -13
-7 -29 -15 -36 -8 -7 -15 -20 -15 -29 0 -9 -9 -31 -20 -49 -11 -18 -20 -39
-20 -48 0 -8 -6 -17 -14 -20 -8 -3 -17 -17 -21 -31 -3 -14 -13 -32 -20 -40 -8
-8 -15 -23 -15 -33 0 -10 -6 -20 -14 -23 -7 -3 -16 -22 -19 -43 -6 -33 -42
-119 -57 -134 -3 -3 -6 -14 -8 -25 -2 -11 -14 -41 -28 -67 -13 -26 -24 -54
-24 -63 0 -8 -4 -15 -10 -15 -5 0 -10 -5 -10 -11 0 -14 -51 -123 -61 -129 -4
-3 -11 -18 -14 -33 -4 -15 -11 -27 -15 -27 -5 0 -11 -13 -15 -29 -3 -16 -15
-37 -26 -47 -10 -9 -19 -28 -19 -41 0 -12 -4 -23 -9 -23 -5 0 -13 -15 -16 -32
-4 -18 -13 -40 -20 -48 -7 -8 -16 -25 -19 -37 -4 -13 -11 -23 -16 -23 -4 0
-11 -11 -14 -25 -4 -14 -11 -25 -16 -25 -6 0 -10 -7 -10 -16 0 -14 -31 -82
-66 -144 -7 -14 -14 -35 -14 -47 0 -13 -4 -23 -9 -23 -5 0 -12 -15 -16 -32 -4
-18 -18 -43 -31 -55 -15 -13 -20 -23 -13 -25 8 -3 7 -9 -5 -20 -9 -9 -16 -20
-16 -24 0 -11 -44 -98 -57 -111 -6 -7 -14 -31 -18 -53 -4 -22 -11 -40 -15 -40
-5 0 -12 -16 -16 -35 -3 -19 -12 -39 -19 -45 -8 -6 -17 -25 -20 -41 -4 -16
-10 -29 -15 -29 -4 0 -11 -11 -14 -25 -4 -14 -10 -25 -15 -25 -5 0 -12 -13
-16 -30 -4 -16 -10 -30 -14 -30 -4 0 -7 -8 -8 -17 -2 -30 -22 -73 -33 -73 -5
0 -10 -11 -10 -25 0 -16 -6 -25 -15 -25 -8 0 -15 -7 -15 -15 0 -8 -6 -15 -12
-15 -9 0 -8 -4 2 -10 12 -7 12 -10 1 -10 -7 0 -11 -6 -7 -15 3 -8 1 -15 -4
-15 -5 0 -13 -12 -16 -26 -4 -14 -17 -45 -30 -67 -13 -23 -28 -52 -33 -64 -5
-11 -15 -24 -20 -28 -6 -3 -11 -14 -11 -23 -1 -9 -9 -35 -20 -57 -11 -22 -19
-45 -20 -52 0 -6 -6 -24 -14 -40 -28 -54 -56 -123 -56 -137 0 -8 -7 -16 -15
-20 -8 -3 -15 -17 -15 -31 0 -14 -6 -28 -14 -31 -8 -3 -17 -25 -21 -50 -3 -24
-10 -44 -16 -44 -5 0 -9 -6 -9 -13 0 -7 -9 -30 -21 -51 -11 -21 -18 -44 -16
-50 3 -7 -4 -18 -14 -24 -10 -7 -19 -19 -19 -27 0 -8 -4 -15 -10 -15 -5 0 -13
-12 -16 -27 -4 -16 -13 -39 -20 -53 -7 -14 -22 -47 -35 -75 -12 -27 -27 -61
-34 -75 -7 -14 -15 -41 -19 -61 -4 -21 -13 -42 -21 -49 -8 -7 -15 -20 -15 -29
0 -9 -7 -25 -15 -35 -8 -11 -15 -27 -15 -37 0 -9 -7 -22 -15 -29 -8 -7 -15
-22 -15 -34 0 -12 -9 -38 -20 -59 -11 -20 -20 -44 -20 -53 0 -8 -4 -13 -9 -10
-5 3 -14 -23 -21 -59 -7 -36 -16 -65 -20 -65 -5 0 -11 -14 -15 -31 -4 -17 -13
-42 -21 -57 -8 -15 -14 -34 -14 -43 0 -9 -6 -22 -14 -28 -8 -7 -17 -30 -21
-52 -4 -21 -11 -39 -16 -39 -5 0 -9 -6 -9 -13 0 -7 -9 -29 -20 -50 -11 -20
-20 -45 -20 -56 0 -10 -7 -21 -15 -25 -8 -3 -15 -12 -15 -20 0 -18 -38 -94
-51 -102 -5 -3 -9 -13 -9 -23 0 -9 -13 -43 -29 -75 -16 -31 -33 -70 -36 -86
-4 -17 -10 -30 -15 -30 -5 0 -12 -15 -15 -33 -4 -17 -14 -41 -21 -52 -8 -11
-14 -26 -14 -33 0 -7 -7 -20 -15 -28 -8 -9 -15 -28 -15 -42 0 -15 -6 -37 -14
-48 -8 -11 -17 -37 -21 -57 -4 -21 -11 -40 -16 -43 -5 -3 -9 -14 -9 -24 0 -10
-8 -26 -17 -36 -31 -31 -45 -66 -31 -76 9 -6 5 -7 -9 -3 -16 4 -23 2 -23 -8 0
-8 -9 -26 -20 -40 -11 -14 -20 -32 -20 -40 0 -8 -7 -17 -15 -21 -8 -3 -15 -12
-15 -21 0 -8 -7 -15 -16 -15 -8 0 -24 -19 -35 -44 -17 -40 -45 -73 -90 -108
-9 -7 -20 -30 -23 -50 -7 -37 -6 -37 36 -49 51 -14 158 -20 158 -9 0 10 70 21
83 13 6 -4 35 -5 65 -4 35 2 58 -2 62 -9 4 -7 13 -9 20 -5 9 6 9 10 -1 17 -10
7 -4 8 16 3 16 -4 66 -6 110 -4 123 3 134 3 220 -6 71 -6 175 -29 198 -42 5
-3 29 -7 55 -9 26 -2 57 -6 70 -8 52 -11 392 -46 465 -48 43 -1 80 -5 82 -8 3
-4 16 -5 29 -3 31 6 166 -16 166 -27 0 -4 18 -4 40 1 27 6 48 6 60 -1 15 -8
18 -7 14 3 -8 21 13 25 81 16 33 -4 98 -8 144 -8 66 -1 91 -5 117 -22 31 -19
53 -21 236 -25 112 -3 250 -10 308 -16 58 -6 206 -12 330 -14 124 -1 250 -5
280 -7 30 -3 115 -11 189 -17 142 -12 228 -38 218 -64 -4 -9 5 -18 21 -25 15
-7 44 -27 66 -46 21 -19 42 -35 47 -35 5 0 6 -6 3 -14 -4 -9 3 -13 21 -13 28
0 75 -21 87 -38 4 -5 2 -15 -4 -22 -7 -9 -7 -13 1 -13 6 0 14 7 18 16 4 11 14
14 34 10 16 -3 31 -1 34 4 3 5 64 9 136 9 77 -1 135 4 143 10 8 7 16 7 22 1 7
-7 40 -6 94 1 47 6 99 11 115 10 57 -2 300 20 385 35 108 19 364 35 368 23 2
-5 8 -9 13 -9 6 0 7 5 4 10 -6 10 -4 11 43 14 34 3 149 14 327 31 77 7 184 13
237 12 54 -2 99 1 100 5 3 8 186 24 373 33 66 3 153 10 194 16 40 5 162 14
270 19 108 6 247 15 308 21 62 6 132 7 155 4 24 -4 75 -1 113 5 39 7 117 16
175 20 58 5 141 13 185 19 44 6 159 15 255 21 202 12 329 26 344 39 6 5 47 12
91 14 44 3 92 10 107 16 15 6 69 13 120 17 51 4 98 11 104 16 7 5 70 15 140
24 71 8 161 23 199 34 127 35 269 70 342 85 40 8 92 25 115 38 24 14 65 30 92
36 27 7 54 19 60 26 6 8 29 21 51 28 22 8 40 20 41 28 0 8 4 21 8 31 4 9 6 28
4 43 -3 24 -11 30 -65 47 -35 10 -63 23 -63 28 0 6 -8 10 -18 10 -17 0 -52 29
-52 42 0 4 -29 35 -64 69 -36 34 -63 66 -60 71 3 5 1 7 -4 6 -11 -3 -38 24
-97 97 -22 27 -59 70 -83 96 -50 54 -100 122 -154 206 -21 32 -55 79 -75 104
-21 25 -66 81 -100 125 -35 43 -67 84 -72 90 -4 5 -13 20 -20 31 -6 12 -17 27
-23 35 -7 7 -49 67 -93 133 -44 66 -86 126 -92 133 -7 7 -13 20 -13 28 0 8 -4
14 -9 14 -5 0 -12 8 -15 18 -3 9 -18 31 -33 48 -16 17 -37 43 -48 58 -11 16
-25 33 -30 40 -6 6 -26 33 -45 61 -19 27 -41 56 -48 63 -6 7 -12 20 -12 28 0
8 -4 14 -10 14 -5 0 -12 11 -16 25 -3 14 -10 25 -15 25 -5 0 -9 6 -9 13 0 6
-14 27 -31 46 -16 19 -27 41 -25 48 3 7 0 13 -7 13 -16 1 -182 233 -219 307
-16 32 -35 64 -42 73 -7 8 -35 51 -62 95 -27 44 -52 82 -56 83 -5 2 -8 8 -8
13 0 15 -161 269 -171 269 -5 0 -9 8 -9 19 0 10 -7 24 -15 31 -8 7 -15 17 -15
21 0 10 -80 141 -91 149 -3 3 -14 20 -24 39 -9 19 -26 43 -36 54 -10 11 -21
29 -25 39 -3 10 -10 18 -15 18 -5 0 -9 6 -9 14 0 8 -6 21 -12 28 -12 12 -23
30 -62 103 -6 10 -16 25 -23 32 -6 7 -19 31 -29 53 -10 22 -21 40 -26 40 -4 0
-8 7 -8 15 0 8 -3 15 -7 15 -5 0 -17 18 -27 40 -11 22 -23 40 -28 40 -4 0 -8
7 -8 15 0 8 -4 15 -9 15 -5 0 -12 12 -15 26 -4 14 -15 34 -24 44 -9 10 -26 36
-37 57 -11 21 -24 43 -30 50 -25 31 -32 41 -56 88 -61 118 -113 210 -122 216
-6 4 -8 13 -5 20 8 21 5 34 -8 31 -12 -2 -116 151 -155 228 -13 25 -35 61 -51
80 -15 19 -28 40 -28 46 0 7 -3 14 -8 16 -4 2 -23 36 -42 76 -19 39 -37 72
-41 72 -12 0 -39 68 -33 84 3 9 1 16 -6 16 -17 0 -38 24 -46 54 -6 24 -10 26
-63 26 -31 0 -61 -4 -66 -9 -15 -13 -101 -32 -118 -26 -7 3 -20 -1 -27 -10 -7
-9 -28 -15 -51 -15 -21 0 -41 -4 -44 -10 -3 -5 -17 -10 -29 -10 -13 0 -42 -7
-65 -15 -23 -8 -61 -17 -84 -19 -23 -3 -78 -12 -122 -21 -44 -9 -182 -20 -309
-26 -127 -5 -232 -13 -235 -18 -9 -13 -120 -19 -124 -7 -3 8 -8 7 -18 -1 -19
-15 -535 -19 -594 -4 -22 6 -80 11 -130 11 -65 0 -104 5 -143 20 -29 11 -65
20 -80 20 -32 1 -109 21 -137 36 -11 6 -38 14 -60 18 -22 4 -83 20 -135 36
-52 15 -121 36 -153 46 -33 9 -61 24 -64 31 -3 8 -12 12 -21 8 -8 -3 -20 -1
-26 4 -6 5 -39 17 -73 26 -35 10 -68 25 -75 33 -11 14 -10 15 7 8 11 -4 49
-14 85 -21 36 -8 93 -26 127 -40 34 -14 88 -30 120 -36 52 -9 217 -49 448
-108 44 -12 103 -21 130 -21 28 0 86 -7 130 -15 200 -36 1020 -2 1412 59 56 9
135 27 175 40 40 13 98 29 128 36 30 7 84 21 120 32 38 11 78 17 96 13 41 -7
102 -54 128 -97 12 -20 56 -85 98 -145 42 -60 98 -150 124 -199 25 -49 61
-111 79 -139 18 -27 47 -79 65 -115 18 -36 42 -78 54 -95 13 -16 98 -156 191
-310 92 -154 197 -325 233 -380 36 -55 76 -120 90 -145 34 -62 160 -277 187
-320 12 -19 46 -75 75 -124 29 -49 63 -98 76 -109 12 -10 28 -33 35 -51 19
-46 86 -153 133 -212 22 -29 65 -90 94 -137 29 -46 61 -92 72 -102 11 -10 20
-22 20 -27 0 -4 16 -30 36 -56 131 -173 207 -281 258 -367 32 -54 72 -112 87
-128 16 -16 29 -34 29 -38 0 -11 66 -104 209 -293 62 -82 131 -176 153 -210
23 -34 73 -99 113 -146 39 -47 86 -106 103 -131 42 -62 87 -99 121 -99 26 0
28 5 99 223 114 350 183 668 228 1037 22 182 30 712 15 918 -68 911 -365 1757
-877 2504 -357 520 -822 981 -1339 1330 -544 367 -1149 626 -1770 758 -381 82
-667 110 -1085 109 -162 -1 -358 -7 -435 -14z m2645 -1382 c-41 -29 -70 -65
-98 -123 -35 -72 -38 -181 -5 -252 52 -114 150 -180 275 -186 67 -4 84 -1 135
23 32 14 68 36 80 47 32 30 28 9 -6 -39 -36 -50 -81 -85 -147 -115 -74 -34
-199 -32 -275 4 -79 36 -130 86 -170 165 -31 62 -34 74 -34 158 1 77 5 98 28
146 31 65 108 141 170 169 53 25 80 26 47 3z m-4110 -1033 c0 -5 -2 -10 -4
-10 -3 0 -8 5 -11 10 -3 6 -1 10 4 10 6 0 11 -4 11 -10z m-400 -290 c0 -5 -5
-10 -11 -10 -5 0 -7 5 -4 10 3 6 8 10 11 10 2 0 4 -4 4 -10z m1337 -95 c20 -8
34 -18 31 -20 -3 -3 -25 4 -49 15 -51 23 -36 27 18 5z m-1412 -54 c3 -5 1 -12
-5 -16 -5 -3 -10 1 -10 9 0 18 6 21 15 7z m4188 -8 c-7 -2 -19 -2 -25 0 -7 3
-2 5 12 5 14 0 19 -2 13 -5z m-123 -33 c-20 -13 -53 -13 -45 0 3 6 18 10 33
10 21 0 24 -2 12 -10z m-80 -15 c0 -6 -73 -25 -78 -20 -3 3 6 9 19 14 26 10
59 14 59 6z m-120 -25 c0 -12 -60 -23 -91 -17 -15 3 -8 5 18 6 23 0 45 6 48
11 8 13 25 13 25 0z m-177 -37 c-7 -2 -19 -2 -25 0 -7 3 -2 5 12 5 14 0 19 -2
13 -5z m-84 -17 c-7 -6 -82 -15 -76 -9 8 7 71 21 76 16 2 -1 2 -5 0 -7z
m-3725 -51 c-4 -8 -8 -15 -10 -15 -2 0 -4 7 -4 15 0 8 4 15 10 15 5 0 7 -7 4
-15z m1056 -65 c28 -16 56 -30 62 -30 14 0 174 -47 203 -59 46 -20 83 -31 130
-37 28 -4 55 -11 61 -15 6 -5 32 -10 57 -11 25 -1 43 -6 41 -10 -3 -4 4 -8 16
-8 11 0 53 -9 93 -19 39 -11 97 -22 127 -26 30 -4 71 -11 90 -15 31 -8 202
-37 270 -45 14 -2 75 -11 135 -20 61 -9 139 -19 175 -21 36 -3 71 -7 79 -10 8
-2 121 -4 250 -3 317 2 400 1 437 -6 18 -3 51 1 75 9 54 17 183 36 249 36 27
0 71 4 97 9 26 5 77 15 113 22 36 6 99 21 140 31 41 11 85 22 96 25 29 7 54
-30 54 -78 0 -23 5 -39 15 -43 8 -3 37 -54 65 -113 30 -62 66 -121 86 -141 19
-18 34 -39 33 -45 -4 -31 3 -48 28 -72 15 -14 25 -25 22 -25 -4 0 29 -69 72
-152 43 -84 101 -199 128 -256 28 -57 63 -120 79 -140 16 -20 45 -68 66 -107
21 -38 41 -72 45 -75 3 -3 14 -21 25 -40 44 -82 71 -128 106 -180 20 -30 66
-98 100 -150 35 -52 79 -117 97 -143 19 -26 38 -60 44 -74 5 -14 31 -53 57
-87 27 -34 58 -78 70 -99 12 -21 59 -88 104 -149 46 -62 92 -126 103 -144 11
-18 37 -61 59 -96 21 -34 53 -79 72 -98 18 -19 62 -80 98 -135 36 -55 69 -105
73 -111 4 -5 13 -17 18 -27 23 -37 71 -104 100 -138 16 -19 49 -58 71 -85 23
-27 56 -65 73 -84 18 -19 58 -67 91 -105 32 -39 77 -84 99 -100 22 -17 41 -33
41 -36 0 -4 16 -24 35 -45 31 -33 33 -40 21 -53 -8 -8 -56 -20 -106 -28 -50
-7 -104 -20 -120 -28 -16 -8 -47 -15 -69 -15 -22 0 -52 -5 -68 -11 -31 -12
-73 -19 -313 -48 -91 -12 -192 -25 -225 -31 -33 -5 -89 -10 -125 -10 -36 0
-81 -5 -100 -10 -19 -6 -71 -13 -115 -16 -44 -3 -100 -7 -125 -9 -25 -3 -94
-9 -155 -15 -60 -5 -141 -14 -180 -20 -38 -6 -124 -15 -190 -20 -164 -12 -302
-27 -314 -35 -6 -3 -48 -7 -93 -10 -46 -2 -118 -7 -162 -11 -77 -7 -78 -7 -65
14 13 21 8 41 -22 92 -9 15 -22 41 -79 165 -18 39 -37 73 -44 77 -6 4 -7 8 -2
8 5 0 4 6 -2 13 -5 6 -24 48 -42 92 -18 44 -41 91 -49 105 -9 14 -25 50 -35
80 -11 30 -24 61 -30 69 -5 7 -11 19 -12 26 -1 8 -15 42 -32 77 -16 35 -42 92
-57 128 -15 36 -38 88 -51 115 -13 28 -24 58 -24 68 0 11 -4 15 -12 11 -6 -4
-8 -3 -5 3 7 12 -13 83 -24 83 -8 0 -34 70 -31 83 2 5 -13 57 -33 115 -19 59
-37 125 -40 146 -2 21 -11 57 -19 80 -7 23 -21 66 -30 96 -19 67 -38 126 -66
205 -11 33 -30 98 -41 145 -25 101 -75 232 -106 279 -13 19 -23 40 -23 49 0
29 -84 168 -133 218 -27 29 -57 65 -68 80 -10 16 -34 40 -53 54 -18 14 -62 59
-97 100 -87 103 -198 210 -219 210 -10 0 -23 7 -30 15 -8 10 -31 15 -71 15
-54 0 -61 -2 -71 -25 -19 -43 -72 -45 -127 -4 -33 24 -98 41 -126 32 -24 -7
-85 -55 -85 -66 0 -4 -11 -25 -25 -45 -14 -20 -25 -47 -25 -60 0 -12 -7 -34
-16 -47 -9 -13 -13 -29 -10 -34 4 -5 2 -12 -3 -15 -12 -8 -24 -164 -23 -321 0
-135 16 -209 73 -332 10 -24 19 -48 19 -54 0 -6 33 -70 73 -142 86 -156 81
-145 65 -144 -45 1 -48 -2 -44 -45 3 -24 8 -72 12 -107 12 -120 80 -273 149
-340 25 -24 47 -51 50 -62 4 -10 10 -19 14 -19 5 0 14 -13 21 -30 7 -16 16
-30 21 -30 5 0 9 -5 9 -12 0 -6 11 -26 25 -44 14 -18 25 -37 25 -43 0 -6 5
-11 10 -11 6 0 10 -6 10 -14 0 -8 8 -21 18 -28 20 -14 27 -27 110 -195 30 -60
59 -115 66 -123 7 -8 34 -73 60 -145 49 -134 59 -159 75 -185 6 -8 31 -69 56
-135 26 -66 60 -148 76 -182 30 -62 59 -146 59 -170 0 -7 -7 -13 -16 -13 -8 0
-12 5 -9 10 3 6 2 10 -4 10 -5 0 -11 -5 -13 -11 -5 -14 -602 -19 -736 -7 -104
10 -143 15 -153 17 -4 0 -12 21 -19 46 -7 25 -17 48 -21 51 -5 3 -9 14 -9 25
0 11 -7 22 -15 25 -8 4 -12 10 -9 15 6 10 -12 83 -30 119 -7 14 -19 48 -26 75
-7 28 -16 55 -20 60 -10 14 -45 125 -65 205 -9 36 -23 72 -31 81 -8 9 -11 18
-8 22 3 3 2 12 -2 19 -9 14 -12 26 -20 78 -3 19 -17 69 -30 110 -30 97 -46
169 -39 181 4 5 2 9 -4 9 -5 0 -15 25 -22 56 -7 31 -18 62 -25 69 -7 7 -10 15
-7 19 3 3 -1 34 -10 68 -9 35 -18 77 -21 93 -10 73 -39 212 -48 228 -5 10 -11
51 -14 90 -3 40 -7 83 -10 97 -3 14 -14 72 -25 130 -10 58 -23 125 -28 150 -5
25 -12 77 -15 115 -6 75 -17 159 -35 268 -28 169 -31 198 -26 207 4 6 1 10 -4
10 -6 0 -11 7 -11 15 0 8 6 15 13 15 8 0 8 3 -2 9 -10 6 -15 33 -16 87 -2 44
-6 90 -9 104 -3 14 -13 68 -22 120 -9 52 -18 102 -21 110 -3 8 -5 36 -4 63 2
37 -1 47 -13 47 -9 0 -16 5 -16 10 0 6 4 10 9 10 4 0 6 11 3 25 -2 14 -9 25
-14 25 -5 0 -7 4 -3 10 3 5 -4 47 -16 92 -36 143 -37 148 -28 154 6 3 7 28 3
57 -3 29 -5 74 -5 100 1 27 -3 55 -10 63 -9 11 -8 14 2 14 10 1 8 4 -4 11 -9
5 -21 8 -26 5 -9 -6 -18 16 -27 68 -4 18 -2 26 5 21 6 -3 11 -13 11 -21 0 -8
7 -14 15 -14 17 0 20 36 6 59 -8 12 -12 12 -25 2 -24 -20 -20 5 4 29 26 26 30
26 90 -10z m-695 -45 c4 -36 5 -76 3 -90 -3 -14 -1 -25 3 -25 5 0 9 -8 9 -18
0 -10 3 -22 7 -26 4 -4 8 -13 8 -19 1 -32 19 -102 31 -125 8 -15 14 -37 14
-49 0 -12 4 -24 9 -27 4 -3 11 -25 14 -48 11 -79 12 -83 18 -88 3 -3 11 -50
18 -105 6 -54 17 -103 24 -107 9 -6 9 -8 0 -8 -9 0 -8 -9 2 -34 8 -19 13 -55
10 -87 -4 -70 28 -347 44 -378 7 -13 15 -40 17 -60 7 -55 9 -65 16 -77 4 -6
10 -30 14 -52 4 -23 10 -42 14 -42 4 0 6 -16 5 -36 -1 -19 2 -37 6 -39 3 -3
10 -35 15 -72 4 -38 8 -70 9 -73 1 -3 4 -41 9 -85 10 -112 27 -205 36 -205 4
0 11 -29 15 -65 3 -36 10 -65 15 -65 4 0 11 -20 14 -45 4 -25 11 -45 15 -45 4
0 13 -40 20 -90 7 -49 16 -92 20 -95 5 -2 11 -30 15 -62 15 -132 26 -195 38
-210 5 -7 7 -21 3 -32 -3 -12 -3 -26 2 -33 4 -7 8 -24 9 -38 0 -14 3 -31 8
-38 4 -6 12 -53 18 -104 6 -51 15 -96 20 -99 5 -3 15 -46 23 -97 14 -86 19
-104 51 -179 8 -17 14 -40 14 -52 0 -12 4 -21 9 -21 4 0 14 -34 20 -75 7 -43
17 -75 24 -76 9 0 9 -2 1 -5 -12 -5 -8 -40 7 -59 4 -5 10 -27 14 -48 4 -20 11
-39 15 -42 5 -3 12 -30 15 -60 4 -30 11 -55 15 -55 4 0 13 -34 20 -75 7 -42
17 -78 21 -81 4 -2 6 -11 2 -19 -3 -9 -1 -21 5 -28 5 -6 13 -27 17 -44 3 -18
10 -33 15 -33 4 0 13 -35 19 -77 6 -42 16 -80 22 -84 6 -3 13 -35 16 -70 3
-35 12 -74 19 -86 8 -13 17 -43 21 -68 3 -24 9 -42 14 -40 4 3 10 -8 14 -25 4
-16 10 -30 14 -30 4 0 12 -24 19 -52 18 -77 17 -77 25 -84 12 -12 8 -44 -5
-44 -7 0 -53 6 -103 14 -94 15 -235 26 -395 31 -52 1 -207 10 -345 19 -137 9
-317 21 -400 26 -291 17 -323 20 -346 28 -13 5 -43 8 -66 7 -26 -1 -41 2 -40
9 1 6 -4 10 -10 9 -7 -2 -13 1 -13 5 0 5 -12 7 -27 5 -22 -3 -30 1 -40 21 -7
17 -8 28 -1 32 5 4 7 20 4 37 -3 17 -1 36 6 44 8 9 8 17 1 24 -7 7 -7 24 -2
47 11 51 24 178 23 230 -1 23 2 42 7 42 4 0 7 19 7 43 -1 23 8 105 20 182 13
77 24 159 27 183 9 101 18 158 27 168 5 7 8 16 7 20 -1 5 0 16 3 24 13 33 32
147 32 195 1 27 5 53 10 57 6 4 5 12 -2 21 -7 7 -9 17 -5 20 3 4 7 19 9 34 9
93 13 124 20 135 4 6 9 43 11 82 2 39 7 98 13 131 14 92 37 247 55 380 9 66
21 127 25 136 5 9 7 19 4 22 -11 11 63 517 76 517 4 0 5 11 3 25 -8 39 35 285
50 285 5 0 6 14 2 30 -4 17 -2 30 3 30 12 0 32 132 22 144 -10 11 0 79 13 87
5 4 10 29 11 55 0 27 5 52 9 55 5 3 10 26 11 51 2 25 5 49 8 54 8 13 16 52 23
109 4 28 13 57 21 66 8 8 14 20 14 26 0 6 6 14 13 16 7 3 5 6 -6 6 -14 1 -16
5 -7 20 5 11 10 31 10 45 0 14 4 26 9 26 5 0 7 9 4 20 -3 13 0 20 8 20 12 0
12 2 1 9 -11 6 -10 11 3 25 9 9 12 16 6 16 -6 0 -11 7 -11 15 0 8 3 14 8 14
19 -3 26 2 13 10 -15 10 -7 81 9 81 8 0 15 31 25 117 11 99 30 186 41 198 8 7
15 27 16 44 1 17 7 31 13 31 5 0 5 4 -2 8 -15 10 -5 52 12 52 9 0 16 -22 20
-65z m-353 13 c-7 -7 -12 -8 -12 -2 0 14 12 26 19 19 2 -3 -1 -11 -7 -17z
m139 -65 c-6 -21 -11 -50 -11 -65 0 -16 -5 -28 -11 -28 -6 0 -8 -7 -5 -16 4
-9 1 -23 -5 -30 -6 -8 -9 -23 -6 -34 3 -11 2 -20 -3 -20 -4 0 -10 -15 -13 -32
-20 -126 -32 -178 -39 -178 -5 0 -6 -9 -3 -20 4 -12 1 -27 -5 -35 -6 -8 -9
-19 -6 -24 4 -5 2 -12 -3 -15 -5 -3 -17 -50 -26 -104 -9 -53 -19 -104 -22
-112 -4 -8 -5 -18 -5 -22 1 -5 -2 -8 -8 -8 -5 0 -7 -21 -3 -50 4 -33 2 -50 -5
-50 -6 0 -11 -12 -11 -27 0 -16 -2 -39 -5 -53 -20 -99 -56 -322 -65 -405 -11
-100 -25 -185 -41 -260 -12 -54 -24 -176 -25 -252 0 -35 -4 -63 -9 -63 -4 0
-5 -7 -2 -16 4 -9 2 -22 -2 -28 -5 -6 -10 -18 -10 -26 -1 -8 -10 -60 -20 -115
-11 -55 -25 -143 -31 -195 -7 -52 -24 -158 -38 -235 -14 -77 -25 -150 -25
-162 0 -13 -5 -23 -10 -23 -5 0 -8 -6 -5 -12 2 -7 0 -23 -4 -35 -6 -16 -5 -23
4 -24 9 0 9 -2 -1 -6 -6 -2 -10 -8 -7 -13 3 -5 0 -21 -6 -37 -6 -15 -11 -61
-10 -100 0 -42 -4 -73 -10 -73 -5 0 -7 -11 -5 -25 3 -15 0 -25 -7 -25 -7 0 -6
-4 3 -10 8 -5 10 -10 4 -10 -15 0 -26 -40 -11 -40 8 0 8 -3 -1 -8 -7 -5 -15
-36 -17 -73 -3 -35 -7 -98 -10 -139 -3 -41 -12 -88 -19 -105 -8 -16 -19 -60
-27 -97 -9 -49 -17 -68 -28 -68 -14 0 -14 -2 -1 -11 11 -8 12 -12 3 -16 -7 -2
-13 -12 -13 -21 0 -15 2 -15 11 -2 12 18 8 -16 -28 -265 -20 -144 -22 -162
-28 -280 -6 -129 -26 -268 -39 -277 -12 -9 -200 -3 -214 6 -10 6 -260 37 -323
41 -19 1 -40 5 -47 9 -10 6 -129 19 -302 32 -104 9 -120 21 -86 70 8 12 18 44
22 73 4 30 13 55 20 58 8 3 14 14 14 25 0 19 22 73 56 140 8 14 14 36 14 47 0
12 5 21 11 21 5 0 7 5 4 10 -4 6 -2 17 5 24 6 8 13 24 15 37 3 12 10 26 16 30
7 4 9 14 6 23 -4 9 -2 16 3 16 6 0 10 7 10 15 0 8 4 15 9 15 5 0 12 13 16 30
4 16 11 30 16 30 5 0 9 4 9 9 0 5 5 22 12 38 6 15 12 31 12 35 1 3 4 10 9 14
4 4 7 14 7 22 0 8 6 28 14 45 8 18 20 50 26 72 7 22 16 45 20 50 4 6 10 26 14
46 4 21 13 42 21 49 8 7 15 22 15 34 0 11 7 29 15 39 7 11 17 36 20 58 4 21
11 39 15 39 5 0 14 25 20 55 6 30 15 55 20 55 5 0 12 20 16 45 3 25 10 45 14
45 5 0 11 14 15 30 4 16 10 30 13 30 11 0 50 92 57 135 4 23 30 74 60 120 29
44 60 95 69 113 16 30 56 175 55 197 0 6 -18 -24 -40 -65 -22 -41 -37 -66 -35
-55 3 11 8 32 12 48 3 15 15 44 25 64 10 21 19 43 19 50 0 7 5 13 10 13 6 0
10 8 10 18 0 9 9 34 20 55 11 20 20 43 20 51 0 7 6 19 14 25 8 7 17 27 20 46
4 19 11 35 16 35 6 0 10 9 10 20 0 11 6 20 13 20 20 0 57 85 57 130 0 46 21
130 32 130 4 0 8 8 8 18 0 9 11 40 25 67 13 28 25 56 25 63 0 7 7 20 15 28 8
9 15 26 15 39 0 13 6 28 14 32 8 4 15 11 15 16 1 36 16 77 30 82 12 4 17 19
18 57 1 28 6 54 11 57 6 3 15 24 21 46 6 22 18 49 26 59 8 11 15 27 15 36 0 9
9 33 20 55 11 22 20 49 20 60 0 11 6 29 13 40 8 11 17 36 21 55 3 19 15 53 25
75 10 22 21 47 25 55 3 8 10 22 15 30 5 8 20 42 33 75 12 33 27 63 33 67 5 4
6 8 1 8 -5 0 -4 6 2 13 5 6 13 32 17 56 4 25 14 51 21 59 8 7 14 22 14 33 0
11 4 18 9 15 5 -4 7 3 4 14 -3 11 -1 20 5 20 6 0 14 15 17 33 4 17 15 50 25
72 10 22 21 57 25 78 4 20 11 37 15 37 5 0 12 15 15 33 4 17 14 41 21 52 8 11
14 26 14 33 0 8 9 25 20 39 11 14 20 37 20 50 0 29 22 73 27 56 2 -6 0 -29 -6
-50z m-128 40 c-7 -2 -19 -2 -25 0 -7 3 -2 5 12 5 14 0 19 -2 13 -5z m-90 -43
c-5 -19 -23 -29 -23 -12 0 7 20 32 26 32 1 0 0 -9 -3 -20z m17 -75 c0 -8 5
-15 10 -15 6 0 10 -4 10 -10 0 -5 -7 -7 -15 -4 -9 4 -15 0 -15 -7 0 -12 -2
-12 -9 0 -10 15 -3 51 10 51 5 0 9 -7 9 -15z m2050 -31 c0 -2 -11 -4 -25 -4
-14 0 -25 4 -25 9 0 4 11 6 25 3 14 -2 25 -6 25 -8z m1915 -10 c-63 -17 -75
-17 -51 1 11 8 38 15 60 14 l41 -1 -50 -14z m-1858 0 c-3 -3 -12 -4 -19 -1 -8
3 -5 6 6 6 11 1 17 -2 13 -5z m276 -51 c-7 -2 -19 -2 -25 0 -7 3 -2 5 12 5 14
0 19 -2 13 -5z m712 -33 c7 -12 -2 -12 -30 0 -19 8 -19 9 2 9 12 1 25 -3 28
-9z m-3145 -59 c0 -6 -4 -13 -10 -16 -5 -3 -10 1 -10 9 0 9 5 16 10 16 6 0 10
-4 10 -9z m201 -192 c-9 -22 -10 -22 -10 -3 -1 11 2 24 6 27 12 12 14 0 4 -24z
m-1 -50 c0 -5 -4 -9 -10 -9 -5 0 -10 7 -10 16 0 8 5 12 10 9 6 -3 10 -10 10
-16z m-12 -64 c0 -13 -4 -22 -9 -19 -5 3 -9 14 -9 25 0 10 4 19 9 19 5 0 9
-11 9 -25z m-13 -66 c0 -24 -5 -35 -17 -37 -15 -3 -16 1 -8 29 5 17 7 36 3 42
-3 5 0 8 8 5 8 -3 14 -19 14 -39z m-12 -82 c-3 -5 -7 -37 -9 -71 -2 -35 -8
-62 -15 -65 -7 -2 -8 -6 -1 -10 14 -9 -10 -170 -28 -181 -8 -5 -11 -17 -7 -31
3 -13 1 -29 -5 -36 -5 -7 -8 -29 -6 -48 2 -19 1 -35 -2 -35 -10 0 -40 -194
-43 -267 -1 -35 -5 -63 -8 -63 -5 0 -28 -124 -45 -240 -2 -14 -8 -54 -14 -90
-6 -36 -14 -87 -18 -114 -4 -27 -13 -51 -20 -52 -7 -1 -8 0 -3 2 6 3 8 11 5
19 -3 7 1 53 10 101 21 126 27 194 16 194 -6 0 -10 5 -10 11 0 5 5 7 12 3 8
-5 9 0 6 14 -4 12 -1 22 4 22 6 0 8 12 5 29 -3 16 -1 34 6 41 9 10 9 14 -1 17
-11 4 -10 8 1 22 14 15 34 108 43 196 5 47 17 148 19 155 1 3 5 25 10 50 5 25
9 47 10 50 1 3 7 52 14 110 7 58 17 117 22 131 6 14 11 40 11 58 1 17 5 31 11
31 5 0 7 9 4 20 -3 11 -1 20 4 20 5 0 9 5 9 11 0 5 -4 7 -10 4 -5 -3 -10 -2
-10 4 0 14 24 20 32 7 4 -5 4 -14 1 -19z m-426 -52 c-4 -8 -11 -15 -17 -15 -7
0 -7 6 0 21 13 23 26 19 17 -6z m0 -40 c-8 -8 -16 -10 -22 -4 -6 7 -5 13 5 19
20 12 32 2 17 -15z m946 -42 c3 -24 1 -43 -4 -43 -5 0 -9 8 -9 19 0 10 -3 34
-6 52 -5 23 -3 31 3 24 6 -5 13 -29 16 -52z m1688 26 c16 -11 27 -25 24 -30
-4 -5 3 -9 14 -9 12 0 21 -4 21 -9 0 -8 14 -23 119 -136 49 -52 68 -85 50 -85
-6 0 -8 -4 -5 -9 7 -10 -39 -25 -87 -29 -10 -1 -16 -6 -12 -11 3 -5 21 -7 40
-4 25 4 41 1 54 -11 18 -16 20 -16 34 4 13 19 18 20 35 9 15 -10 18 -17 11
-26 -8 -9 1 -18 38 -35 26 -13 47 -28 46 -33 -1 -6 5 -14 13 -18 8 -4 14 -14
14 -21 0 -7 9 -21 20 -31 11 -10 22 -26 26 -37 3 -10 19 -32 35 -49 34 -35 36
-43 9 -34 -19 6 -19 5 3 -29 25 -39 42 -47 32 -15 -5 15 -4 19 4 15 6 -4 11
-13 11 -20 0 -7 9 -31 20 -54 11 -22 20 -47 20 -54 0 -7 7 -22 15 -32 17 -23
20 -40 5 -31 -15 9 -14 5 26 -110 33 -97 34 -106 20 -127 -12 -16 -13 -25 -4
-35 9 -11 7 -12 -7 -6 -15 5 -17 3 -11 -13 4 -10 13 -40 19 -65 9 -38 15 -46
33 -46 20 0 21 3 13 31 -21 74 -5 53 21 -29 31 -94 36 -125 20 -125 -5 0 -7 7
-4 15 4 9 0 15 -10 15 -21 0 -20 -9 4 -65 24 -56 24 -55 6 -55 -21 0 -24 -29
-8 -77 13 -40 32 -58 32 -31 0 7 11 -3 25 -22 14 -19 28 -36 33 -39 19 -14
116 -304 109 -324 -3 -6 -16 13 -30 43 -13 30 -21 58 -16 61 9 5 -6 41 -67
162 -26 52 -29 54 -50 33 -17 -17 -17 -31 -4 -88 5 -24 12 -60 15 -81 3 -21
10 -35 15 -32 6 3 5 16 0 30 -16 43 6 27 24 -17 11 -25 20 -37 23 -29 3 7 -11
45 -30 85 -19 39 -37 81 -40 94 -8 35 19 27 34 -10 7 -18 16 -35 20 -38 12 -9
39 -82 33 -91 -7 -12 24 -98 44 -121 8 -10 22 -18 31 -18 19 0 69 -127 69
-177 1 -41 8 -54 27 -46 8 3 15 0 15 -6 0 -6 -7 -11 -15 -11 -8 0 -15 -7 -15
-15 0 -8 -4 -15 -9 -15 -5 0 -11 7 -15 15 -3 8 -10 15 -15 15 -7 0 -6 -9 1
-25 7 -16 17 -24 26 -20 7 3 18 5 23 5 5 0 9 7 9 15 0 9 6 12 16 8 15 -5 15
-7 0 -15 -14 -8 -13 -12 7 -31 20 -18 107 -177 107 -194 0 -3 -6 -3 -14 0 -7
3 -19 0 -26 -6 -10 -9 -12 -9 -8 3 7 22 -34 143 -51 148 -8 3 -11 0 -7 -6 4
-7 9 -24 11 -39 2 -16 11 -48 20 -73 9 -27 12 -46 6 -48 -5 -2 -7 -10 -4 -18
3 -7 9 -11 14 -8 5 3 9 0 9 -5 0 -6 5 -11 11 -11 6 0 8 9 4 20 -11 34 4 22 20
-16 8 -20 12 -47 9 -60 -4 -15 1 -33 15 -53 12 -16 21 -35 21 -43 0 -8 5 -19
11 -25 7 -7 8 -20 5 -30 -7 -17 -8 -17 -20 0 -7 9 -16 17 -19 17 -7 0 13 -83
22 -90 4 -3 7 -14 8 -25 0 -11 2 -24 4 -30 2 -5 0 -11 -6 -11 -5 -1 -18 21
-29 48 -13 35 -21 46 -27 37 -11 -18 -22 10 -17 43 l5 23 11 -25 c9 -21 10
-16 7 35 -2 33 -4 63 -4 68 -1 4 -9 8 -18 8 -17 1 -17 2 0 6 21 6 23 33 1 33
-8 0 -12 -4 -9 -10 3 -6 -4 -10 -17 -10 -16 0 -19 -3 -10 -9 16 -10 29 -91 14
-91 -5 0 -22 29 -37 65 -16 36 -33 65 -39 65 -6 0 -18 20 -27 45 l-16 44 27
-19 c15 -11 31 -31 34 -45 4 -14 13 -25 20 -25 10 0 12 7 9 23 -7 27 -32 57
-48 57 -6 0 -17 11 -23 25 -9 20 -9 23 3 18 20 -7 19 3 -3 35 -24 35 -46 91
-39 98 3 3 8 -4 12 -15 7 -23 25 -29 25 -9 0 16 -50 88 -61 88 -12 0 -11 -17
1 -25 6 -3 10 -11 10 -17 0 -7 -6 -6 -15 2 -8 7 -15 18 -15 25 0 7 -6 18 -13
24 -8 6 -19 29 -26 51 -11 39 -31 55 -31 25 0 -14 30 -85 40 -95 3 -3 6 -12 8
-20 2 -8 10 -22 18 -31 8 -8 14 -20 14 -25 0 -5 9 -18 21 -28 13 -11 19 -25
16 -38 -3 -11 -2 -31 3 -43 7 -17 5 -25 -6 -29 -8 -3 -14 -1 -14 4 0 24 -26
57 -36 47 -8 -8 24 -64 45 -79 10 -7 19 -16 20 -20 8 -33 39 -83 51 -83 8 0
15 -7 15 -16 0 -26 37 -99 50 -99 18 0 24 -55 9 -82 -8 -13 -13 -37 -14 -54 0
-16 -5 -35 -12 -42 -9 -9 -8 -18 1 -39 20 -43 39 -111 33 -117 -3 -4 -42 -6
-86 -6 -45 0 -119 -4 -166 -9 -47 -5 -138 -11 -203 -13 l-119 -3 -18 48 c-10
26 -16 47 -13 47 3 0 0 7 -7 15 -7 8 -10 15 -7 15 8 0 -43 153 -56 166 -4 4
-7 16 -7 26 0 10 -4 18 -10 18 -5 0 -7 7 -4 15 4 8 1 15 -6 15 -7 0 -10 6 -7
14 3 8 -1 17 -9 20 -9 3 -13 10 -9 15 3 6 -3 24 -14 42 -11 18 -18 36 -16 40
3 4 -2 12 -10 19 -8 7 -15 16 -15 21 0 5 -12 28 -27 50 -14 22 -28 51 -29 64
-1 13 -29 79 -62 147 -33 67 -63 133 -67 146 -3 12 -14 22 -23 22 -15 0 -15 2
-2 10 10 6 11 10 3 10 -8 0 -13 13 -13 30 0 19 -6 33 -16 37 -8 3 -13 11 -10
18 3 8 -2 16 -10 19 -8 3 -14 12 -14 21 0 8 -5 15 -10 15 -6 0 -8 12 -4 28 4
21 3 24 -5 12 -6 -8 -11 -12 -12 -7 -1 4 -2 10 -3 15 -3 15 -41 72 -48 72 -4
0 -8 6 -8 14 0 8 -7 17 -16 20 -8 3 -12 10 -9 16 3 5 1 10 -4 10 -6 0 -11 9
-11 20 0 11 -3 20 -7 20 -5 0 -21 20 -37 45 -15 25 -35 51 -45 58 -24 18 -71
84 -64 90 3 3 -2 13 -11 22 -9 9 -16 30 -16 46 0 16 -4 29 -10 29 -5 0 -9 18
-8 40 1 27 5 37 11 31 6 -6 17 -2 29 12 11 12 17 16 13 10 -3 -7 -1 -13 4 -13
6 0 11 14 11 31 0 26 -3 31 -20 26 -11 -3 -18 -1 -14 4 3 5 0 9 -5 9 -19 0
-12 18 10 25 18 6 19 8 5 18 -14 10 -12 12 14 14 24 2 30 -2 30 -17 0 -14 -7
-20 -21 -20 -12 0 -17 -4 -14 -11 4 -6 13 -8 20 -5 8 3 13 -4 13 -20 0 -31 9
-41 24 -26 8 8 9 12 1 12 -6 0 -9 9 -6 20 3 11 9 20 13 20 10 0 23 -68 15 -80
-4 -6 1 -13 9 -16 9 -3 13 -11 9 -18 -3 -6 -2 -8 2 -3 12 10 13 107 2 107 -14
0 -36 32 -37 53 0 9 -11 23 -25 29 -14 6 -25 15 -25 20 0 5 -24 33 -53 62 -35
35 -68 84 -100 147 -26 52 -56 110 -66 129 -35 63 -84 199 -78 220 3 11 1 18
-4 14 -5 -3 -10 1 -10 8 -1 7 -3 24 -4 38 -12 103 -11 120 0 130 7 6 15 7 17
3 3 -4 3 -1 0 7 -12 43 -12 79 0 75 9 -4 13 5 13 27 -1 18 4 36 10 40 6 5 5 8
-3 8 -7 0 -10 5 -7 10 3 6 1 10 -4 10 -6 0 -1 18 10 40 13 25 20 52 17 71 -5
32 9 50 23 28 6 -10 10 -7 17 11 7 18 6 27 -4 33 -8 4 -14 13 -14 19 0 16 57
68 74 68 22 0 30 -20 9 -20 -17 -1 -17 -2 1 -15 12 -9 22 -11 26 -6 9 15 26
-2 27 -26 2 -48 3 -53 17 -53 7 0 16 -10 20 -22 5 -18 8 -20 15 -9 11 17 23
-1 15 -23 -5 -12 0 -16 19 -16 14 0 29 -4 32 -10 4 -6 -1 -7 -12 -4 -15 5 -16
4 -3 -5 8 -6 24 -11 35 -12 11 0 14 -3 8 -6 -18 -7 -16 -23 1 -23 8 0 27 -11
41 -24 l26 -24 -31 -10 c-36 -13 -40 -25 -6 -16 18 4 27 1 35 -14 14 -26 6
-32 -41 -32 -22 0 -37 -4 -34 -8 7 -11 -84 -32 -140 -32 -32 0 -44 -4 -44 -15
0 -17 19 -19 75 -4 109 28 128 30 148 12 19 -17 20 -17 14 0 -4 11 -1 17 8 17
8 0 15 -4 15 -10 0 -5 5 -10 11 -10 5 0 9 10 7 22 -5 37 18 30 28 -9 5 -20 16
-38 24 -41 13 -3 13 -2 0 7 -13 9 -12 11 4 11 16 0 16 2 5 16 -14 17 -20 54
-9 54 4 0 29 -12 56 -27 41 -22 46 -24 34 -8 -8 11 -22 25 -30 32 -8 6 -12 15
-8 19 5 4 17 -3 28 -17 18 -19 23 -21 30 -9 12 19 12 27 0 35 -6 4 -8 11 -5
16 4 5 2 9 -3 9 -17 0 -32 51 -34 113 l-1 62 -6 -65 -6 -65 -19 28 c-10 15
-24 27 -32 27 -7 0 -19 10 -25 23 -7 12 -18 26 -25 30 -15 9 -9 93 9 115 7 9
6 11 -7 6 -15 -6 -15 -3 -5 20 8 16 18 25 26 22 8 -3 11 -1 8 4 -10 16 5 12
36 -11z m-2761 -39 c12 -8 11 -10 -7 -10 -13 0 -23 5 -23 10 0 13 11 13 30 0z
m1091 -56 c9 -11 8 -14 -5 -14 -16 0 -46 22 -46 33 0 10 40 -5 51 -19z m9 -54
c0 -22 -4 -28 -15 -24 -8 4 -15 17 -15 30 0 15 6 24 15 24 10 0 15 -10 15 -30z
m-1169 -22 c0 -7 3 -30 5 -51 3 -25 1 -36 -6 -32 -5 3 -10 12 -10 20 0 7 -6
16 -12 19 -10 4 -10 8 -2 11 7 3 10 15 7 25 -3 11 0 20 6 20 6 0 11 -6 12 -12z
m248 -44 c-9 -22 -13 -25 -16 -12 -3 10 2 24 9 32 18 20 20 13 7 -20z m931 -4
c0 -16 5 -30 11 -30 6 0 9 -7 5 -15 -3 -8 -2 -15 3 -15 5 0 11 -27 15 -60 4
-33 11 -60 15 -60 5 0 14 -45 21 -100 7 -61 17 -100 24 -100 6 0 5 -4 -3 -9
-11 -7 -11 -14 3 -42 13 -26 14 -34 4 -41 -8 -4 -9 -8 -2 -8 7 0 11 -24 10
-65 -1 -44 3 -68 12 -74 7 -4 12 -12 10 -17 -5 -17 13 -98 25 -113 10 -12 9
-13 -2 -7 -10 7 -12 2 -7 -20 3 -16 8 -51 12 -79 4 -27 10 -52 14 -55 5 -3 11
-32 15 -64 6 -44 5 -57 -4 -51 -7 4 -10 12 -8 18 2 7 -2 19 -9 28 -8 8 -15 34
-18 57 -2 24 -6 45 -10 49 -3 3 -6 19 -6 34 0 15 -4 31 -10 34 -13 8 -13 65 1
65 6 0 3 7 -6 17 -12 11 -15 25 -11 49 4 18 3 35 -2 38 -5 3 -12 33 -16 65 -4
33 -12 63 -17 67 -6 3 -8 13 -4 22 3 8 2 18 -4 21 -5 3 -12 35 -15 70 -4 36
-11 70 -17 77 -5 6 -7 19 -3 28 3 9 2 22 -4 29 -5 6 -13 39 -17 72 -4 33 -11
62 -16 65 -4 3 -12 38 -17 78 -8 66 -7 72 10 72 13 0 18 -8 18 -30z m1618 -23
c5 -24 -15 -21 -21 4 -3 13 -1 19 6 16 7 -2 13 -11 15 -20z m-2558 -17 c0 -5
-4 -10 -10 -10 -5 0 -10 5 -10 10 0 6 5 10 10 10 6 0 10 -4 10 -10z m2600 -24
c0 -3 -4 -8 -10 -11 -5 -3 -10 -1 -10 4 0 6 5 11 10 11 6 0 10 -2 10 -4z
m-2627 -38 c-3 -18 -9 -37 -14 -42 -4 -5 -5 -15 -2 -22 3 -8 1 -14 -5 -14 -6
0 -13 -13 -17 -30 -4 -16 -11 -30 -16 -30 -14 0 -11 28 10 68 10 20 22 52 26
70 3 17 11 32 16 32 4 0 6 -15 2 -32z m2667 6 c0 -8 -6 -14 -14 -14 -9 0 -12
7 -9 20 6 22 23 18 23 -6z m196 6 c0 -11 -4 -20 -8 -20 -10 0 -11 24 -1 33 9
9 9 10 9 -13z m-299 -20 c33 -26 17 -26 -22 0 -16 11 -24 20 -17 20 8 0 25 -9
39 -20z m393 -21 c0 -5 -4 -9 -10 -9 -5 0 -10 7 -10 16 0 8 5 12 10 9 6 -3 10
-10 10 -16z m-3260 -60 c0 -16 -4 -28 -8 -25 -5 3 -8 15 -6 28 3 28 3 28 9 28
3 0 5 -14 5 -31z m-64 -116 c-8 -8 -12 -3 -21 27 l-7 25 17 -23 c9 -13 14 -26
11 -29z m290 -14 c-4 -23 -13 -48 -21 -56 -8 -8 -15 -17 -16 -21 -3 -28 -9
-46 -17 -51 -6 -3 -14 -24 -18 -46 -4 -22 -13 -46 -21 -53 -7 -7 -13 -22 -13
-31 0 -10 -6 -24 -14 -30 -8 -7 -17 -30 -21 -52 -4 -21 -11 -39 -17 -39 -6 0
-8 -7 -4 -15 3 -8 2 -15 -3 -15 -5 0 -12 -16 -15 -35 -4 -19 -11 -35 -15 -35
-5 0 -14 -20 -20 -45 -6 -25 -15 -45 -20 -45 -5 0 -12 -24 -16 -52 -4 -29 -13
-64 -21 -78 -20 -38 -54 -118 -54 -128 0 -5 -7 -15 -15 -22 -8 -7 -15 -20 -15
-30 0 -10 -7 -24 -16 -31 -15 -12 -16 -11 -9 11 4 14 16 44 26 67 11 23 19 49
19 57 0 9 4 16 9 16 5 0 14 23 21 52 6 29 14 55 19 58 9 6 37 84 53 148 6 23
15 42 20 42 4 0 13 20 19 45 6 25 15 45 19 45 5 0 11 18 15 40 4 22 20 65 35
95 16 31 32 69 35 85 4 17 10 30 14 30 4 0 14 19 21 42 7 24 18 52 26 63 8 11
14 27 14 37 0 10 5 18 11 18 8 0 9 -13 5 -41z m-228 -88 c-15 -5 -19 4 -11 24
6 18 7 18 13 -1 4 -10 3 -21 -2 -23z m-152 -56 c3 -13 4 -29 2 -34 -5 -17 -26
2 -33 32 -6 21 -4 27 9 27 8 0 18 -11 22 -25z m114 -36 c0 -5 -4 -9 -10 -9 -5
0 -10 7 -10 16 0 8 5 12 10 9 6 -3 10 -10 10 -16z m-10 -109 c0 -5 -7 -7 -15
-4 -8 4 -12 10 -9 15 6 11 24 2 24 -11z m-100 -20 c0 -5 -4 -10 -10 -10 -5 0
-10 5 -10 10 0 6 5 10 10 10 6 0 10 -4 10 -10z m-120 -49 c0 -6 -4 -13 -10
-16 -5 -3 -10 1 -10 9 0 9 5 16 10 16 6 0 10 -4 10 -9z m130 -47 c0 -8 -5 -12
-10 -9 -6 4 -8 11 -5 16 9 14 15 11 15 -7z m-140 -44 c0 -11 -4 -20 -10 -20
-5 0 -10 9 -10 20 0 11 5 20 10 20 6 0 10 -9 10 -20z m-5 -40 c-3 -5 -10 -10
-16 -10 -5 0 -9 5 -9 10 0 6 7 10 16 10 8 0 12 -4 9 -10z m-62 -78 c-9 -34
-23 -26 -19 11 3 17 5 34 6 37 0 3 5 -2 10 -11 5 -8 6 -25 3 -37z m3951 -7 c3
-8 1 -15 -4 -15 -6 0 -10 7 -10 15 0 8 2 15 4 15 2 0 6 -7 10 -15z m-3946 -35
c-9 -13 -16 -16 -23 -9 -7 7 -5 13 5 19 24 15 31 11 18 -10z m3022 -26 c0 -25
-35 -12 -38 14 -3 21 -1 22 17 12 12 -6 21 -18 21 -26z m-3020 -54 c0 -5 -5
-10 -11 -10 -5 0 -7 5 -4 10 3 6 8 10 11 10 2 0 4 -4 4 -10z m70 -22 c1 -7 3
-30 6 -50 4 -24 2 -38 -5 -38 -6 0 -11 7 -11 16 0 8 -4 12 -10 9 -11 -7 -13
18 -4 53 7 23 24 30 24 10z m759 -68 c0 -19 -2 -21 -8 -11 -6 10 -8 0 -4 -27
4 -30 2 -42 -7 -42 -8 0 -10 -8 -6 -25 4 -14 2 -25 -3 -25 -5 0 -12 -27 -16
-60 -4 -33 -10 -60 -15 -60 -4 0 -7 -15 -6 -32 0 -18 -3 -34 -9 -35 -13 -4
-14 -12 15 170 13 86 29 157 35 157 6 0 6 3 -1 8 -8 5 -9 14 -1 32 l10 25 7
-25 c5 -14 8 -36 9 -50z m990 10 c4 0 5 -16 3 -35 -2 -19 -8 -32 -13 -30 -4 3
-6 12 -2 20 3 9 0 22 -7 30 -8 10 -9 24 -4 42 l8 28 4 -27 c2 -16 7 -28 11
-28z m4611 -60 c0 -5 -2 -10 -4 -10 -3 0 -8 5 -11 10 -3 6 -1 10 4 10 6 0 11
-4 11 -10z m-2367 -123 c25 -77 23 -100 -5 -60 -13 18 -29 33 -35 33 -7 0 -13
7 -13 15 0 8 6 15 14 15 9 0 12 8 8 25 -8 46 13 26 31 -28z m-3888 -14 c-8
-42 -12 -50 -22 -40 -3 4 -1 18 6 31 8 13 10 29 7 35 -4 6 -2 11 5 11 8 0 9
-12 4 -37z m-372 -43 c3 -11 3 -20 1 -20 -2 0 -8 9 -14 20 -6 11 -7 20 -2 20
6 0 12 -9 15 -20z m2054 -32 c-3 -7 -5 -2 -5 12 0 14 2 19 5 13 2 -7 2 -19 0
-25z m-1713 -5 c-4 -16 -12 -37 -19 -48 -7 -11 -16 -35 -19 -53 -4 -17 -12
-32 -17 -32 -4 0 -6 -13 -2 -30 3 -19 1 -30 -5 -30 -6 0 -14 -16 -18 -35 -3
-19 -11 -35 -16 -35 -6 0 -8 -9 -5 -20 3 -11 1 -20 -3 -20 -5 0 -11 -18 -15
-40 -4 -22 -11 -40 -15 -40 -5 0 -8 -8 -7 -18 0 -9 -18 -57 -41 -105 -23 -48
-44 -102 -47 -120 -4 -17 -10 -34 -14 -37 -5 -3 -12 -20 -16 -37 -3 -18 -10
-33 -15 -33 -5 0 -12 -20 -15 -45 -4 -24 -13 -50 -21 -56 -8 -6 -17 -29 -20
-50 -4 -22 -10 -39 -15 -39 -4 0 -11 -17 -15 -37 -4 -21 -11 -44 -17 -51 -6
-8 -12 -23 -14 -34 -2 -11 -12 -41 -22 -66 -19 -47 -33 -83 -36 -92 -19 -65
-31 -92 -42 -101 -7 -6 -13 -17 -13 -23 0 -6 -16 -42 -35 -81 -19 -38 -35 -76
-35 -83 0 -13 -24 -42 -34 -42 -12 0 -5 28 8 33 8 3 17 27 21 56 4 28 11 51
16 51 5 0 9 9 9 20 0 11 5 20 11 20 5 0 7 5 4 11 -4 5 5 21 19 34 15 13 26 28
25 32 -3 17 14 73 22 73 5 0 8 3 7 8 -1 4 4 20 10 35 7 16 12 39 12 53 0 13 5
24 10 24 6 0 10 8 10 17 0 19 22 85 31 93 3 3 13 19 21 37 11 22 13 34 5 42
-8 8 -7 11 2 11 7 0 11 6 8 13 -2 6 5 20 16 30 11 9 15 17 10 17 -6 0 -8 11
-5 25 2 14 8 25 12 25 5 0 11 14 15 30 4 17 11 30 16 30 5 0 8 3 7 8 -1 4 4
20 10 35 7 16 12 34 12 40 0 7 7 21 15 31 8 11 15 30 15 43 0 13 4 23 9 23 5
0 15 25 21 55 6 30 15 55 19 55 4 0 8 6 9 13 3 34 25 107 32 107 4 0 11 16 14
35 4 19 11 35 16 35 5 0 13 12 16 28 4 15 11 32 16 39 5 7 7 17 3 23 -3 5 -2
10 3 10 5 0 12 15 16 33 7 38 48 127 59 127 4 0 5 -12 1 -27z m-385 -81 c-1
-26 1 -53 5 -60 10 -17 -9 -15 -24 3 -8 10 -10 30 -6 60 10 60 28 58 25 -3z
m61 -2 c0 -5 -4 -10 -10 -10 -5 0 -10 5 -10 10 0 6 5 10 10 10 6 0 10 -4 10
-10z m949 -37 c-5 -27 -15 -69 -23 -95 -9 -28 -13 -68 -10 -100 3 -29 -6 -129
-19 -223 -13 -98 -19 -172 -14 -174 5 -2 3 -7 -4 -12 -8 -5 -14 -30 -14 -68
-1 -33 -6 -66 -12 -73 -11 -15 -28 -111 -43 -253 -6 -55 -20 -154 -30 -220
-31 -196 -42 -294 -36 -310 3 -8 1 -15 -5 -15 -6 0 -8 -17 -6 -40 2 -22 1 -40
-2 -40 -3 0 -6 -28 -6 -62 0 -39 -4 -63 -12 -65 -9 -3 -11 -18 -6 -49 3 -24 2
-44 -3 -44 -5 0 -9 -21 -8 -47 1 -64 -3 -73 -37 -73 l-28 0 6 53 c4 28 7 71 7
94 1 22 5 39 10 36 4 -3 7 18 5 46 -2 28 0 53 6 55 6 3 3 9 -5 15 -8 6 -10 11
-4 11 13 0 16 17 14 88 0 28 3 52 7 52 4 0 8 15 7 32 -2 59 25 211 38 220 11
6 11 8 0 8 -7 0 -10 5 -7 10 4 6 9 43 11 83 3 39 11 84 19 101 16 31 35 133
61 321 9 66 22 161 29 210 7 50 20 140 29 200 40 285 59 375 76 375 15 0 16
-6 9 -47z m-778 -16 c-10 -9 -11 -8 -5 6 3 10 9 15 12 12 3 -3 0 -11 -7 -18z
m4 -27 c3 -6 -1 -7 -9 -4 -18 7 -21 14 -7 14 6 0 13 -4 16 -10z m-91 -15 c-4
-8 -8 -15 -10 -15 -2 0 -4 7 -4 15 0 8 4 15 10 15 5 0 7 -7 4 -15z m-72 -29
c3 -24 0 -32 -9 -29 -15 6 -15 9 -7 41 8 30 11 28 16 -12z m2538 22 c0 -7 3
-24 7 -37 4 -17 2 -22 -7 -19 -16 5 -26 68 -11 68 6 0 11 -6 11 -12z m-2723
-130 c-3 -8 -6 -5 -6 6 -1 11 2 17 5 13 3 -3 4 -12 1 -19z m168 -38 c3 -5 1
-10 -4 -10 -6 0 -11 5 -11 10 0 6 2 10 4 10 3 0 8 -4 11 -10z m-165 -26 c0 -8
-4 -12 -10 -9 -5 3 -10 10 -10 16 0 5 5 9 10 9 6 0 10 -7 10 -16z m122 -51 c5
-7 7 -17 3 -23 -12 -19 -35 10 -35 45 0 41 14 55 18 18 2 -15 8 -33 14 -40z
m-184 -38 c1 -14 -3 -25 -8 -25 -11 0 -14 33 -3 43 9 9 8 10 11 -18z m2408 0
c10 -26 -1 -35 -13 -10 -6 14 -7 25 -2 25 5 0 12 -7 15 -15z m-2336 -10 c0 -8
-7 -15 -15 -15 -8 0 -15 7 -15 15 0 8 7 15 15 15 8 0 15 -7 15 -15z m-5 -35
c3 -5 -1 -10 -9 -10 -9 0 -16 5 -16 10 0 6 4 10 9 10 6 0 13 -4 16 -10z m2365
-36 c0 -14 -4 -22 -10 -19 -5 3 -10 17 -10 31 0 14 4 22 10 19 6 -3 10 -17 10
-31z m-2445 16 c3 -5 2 -10 -4 -10 -5 0 -13 5 -16 10 -3 6 -2 10 4 10 5 0 13
-4 16 -10z m21 -57 c-3 -21 -6 -47 -6 -57 0 -19 -1 -18 -21 3 -29 31 -13 90
25 91 5 0 6 -17 2 -37z m2439 -48 c6 -37 5 -39 -9 -21 -9 11 -16 33 -16 50 0
41 17 22 25 -29z m-2375 -24 c0 -34 -9 -61 -20 -61 -5 0 -7 19 -5 43 4 50 3
47 15 47 6 0 10 -13 10 -29z m2399 -33 c0 -7 -4 -22 -9 -33 -7 -17 -9 -15 -9
13 -1 17 4 32 9 32 6 0 10 -6 9 -12z m-2352 -30 c-3 -8 -6 -5 -6 6 -1 11 2 17
5 13 3 -3 4 -12 1 -19z m-210 -30 c-3 -8 -6 -5 -6 6 -1 11 2 17 5 13 3 -3 4
-12 1 -19z m2528 2 c3 -5 1 -10 -4 -10 -6 0 -11 5 -11 10 0 6 2 10 4 10 3 0 8
-4 11 -10z m45 -17 c0 -10 7 -31 15 -47 8 -15 15 -34 15 -41 0 -7 4 -15 8 -17
5 -1 12 -18 15 -35 5 -25 3 -33 -8 -33 -8 0 -15 7 -15 15 0 8 -4 23 -9 33 -11
24 -41 117 -41 131 0 6 5 11 10 11 6 0 10 -8 10 -17z m-2624 -70 c-11 -11 -19
6 -11 24 8 17 8 17 12 0 3 -10 2 -21 -1 -24z m71 15 c-3 -8 -6 -5 -6 6 -1 11
2 17 5 13 3 -3 4 -12 1 -19z m143 3 c0 -6 -4 -13 -10 -16 -5 -3 -10 1 -10 9 0
9 5 16 10 16 6 0 10 -4 10 -9z m-70 -23 c0 -17 -18 -44 -24 -37 -8 7 5 49 15
49 5 0 9 -6 9 -12z m110 -55 c0 -13 -3 -13 -15 -3 -8 7 -12 16 -9 21 8 13 24
1 24 -18z m4775 -60 c16 -38 33 -70 38 -72 5 -2 3 -7 -4 -12 -10 -6 -11 -9 -1
-9 6 0 12 -4 12 -10 0 -18 -29 -10 -35 9 -4 12 -12 18 -21 14 -7 -3 -14 0 -14
6 0 6 5 11 10 11 15 0 12 27 -6 44 -8 9 -13 20 -10 25 4 5 2 11 -3 13 -4 1
-12 13 -15 26 -5 16 -3 22 7 22 8 0 26 -29 42 -67z m-4945 17 c0 -22 -4 -40
-10 -40 -5 0 -10 18 -10 40 0 22 5 40 10 40 6 0 10 -18 10 -40z m140 -16 c0
-8 -4 -14 -10 -14 -5 0 -10 9 -10 21 0 11 5 17 10 14 6 -3 10 -13 10 -21z
m-223 -56 c-2 -13 -4 -3 -4 22 0 25 2 35 4 23 2 -13 2 -33 0 -45z m146 22 c-3
-11 -9 -20 -14 -20 -10 0 -11 12 -3 34 9 22 23 10 17 -14z m2524 8 c-3 -8 -6
-5 -6 6 -1 11 2 17 5 13 3 -3 4 -12 1 -19z m-2707 2 c0 -5 -2 -10 -4 -10 -3 0
-8 5 -11 10 -3 6 -1 10 4 10 6 0 11 -4 11 -10z m7901 -51 c13 -25 -12 -16 -29
11 -10 16 -9 18 3 13 9 -3 20 -14 26 -24z m-7701 -23 c0 -3 -4 -8 -10 -11 -5
-3 -10 -1 -10 4 0 6 5 11 10 11 6 0 10 -2 10 -4z m-240 -31 c0 -8 -2 -15 -4
-15 -2 0 -6 7 -10 15 -3 8 -1 15 4 15 6 0 10 -7 10 -15z m176 -31 c-7 -18 -35
-19 -32 -1 1 7 8 20 16 29 13 14 15 14 18 1 2 -8 1 -21 -2 -29z m2601 24 c-3
-8 -6 -5 -6 6 -1 11 2 17 5 13 3 -3 4 -12 1 -19z m2357 -55 c4 -13 3 -23 -3
-23 -5 0 -12 15 -16 33 -4 17 -8 41 -11 52 -4 22 20 -27 30 -62z m22 32 c16
-40 17 -45 5 -45 -5 0 -12 11 -15 24 -3 13 -9 31 -12 40 -12 32 7 15 22 -19z
m-2356 -9 c0 -3 -4 -8 -10 -11 -5 -3 -10 -1 -10 4 0 6 5 11 10 11 6 0 10 -2
10 -4z m2405 -32 c8 -20 13 -40 10 -44 -3 -5 1 -11 7 -13 7 -3 3 -6 -9 -6 -16
-1 -21 3 -17 14 4 10 0 15 -15 15 -12 0 -21 5 -21 10 0 6 8 10 18 8 17 -3 19
4 7 35 -14 34 5 16 20 -19z m-5005 -9 c0 -8 -4 -15 -10 -15 -5 0 -10 7 -10 15
0 8 5 15 10 15 6 0 10 -7 10 -15z m2608 -13 c5 -31 -15 -27 -21 3 -3 16 0 24
7 22 6 -2 12 -13 14 -25z m2337 -80 c8 -49 25 -65 26 -25 l1 28 12 -25 c24
-51 58 -100 66 -95 9 6 23 -25 15 -33 -3 -3 -5 0 -5 6 0 7 -5 12 -11 12 -6 0
-9 -5 -7 -12 3 -7 23 -12 46 -13 39 -1 61 -9 51 -19 -3 -3 -29 -6 -59 -8 l-54
-3 -9 43 c-4 23 -13 42 -19 42 -5 0 -8 6 -5 14 3 8 -1 17 -9 20 -15 6 -20 -19
-5 -28 5 -4 12 -25 16 -47 9 -53 0 -59 -92 -59 l-72 0 -7 35 c-3 19 -10 35
-14 35 -5 0 -6 9 -3 20 3 11 8 20 12 20 6 0 45 -44 60 -69 14 -23 30 -3 24 31
-4 29 -4 30 12 14 9 -9 21 -14 26 -11 5 4 6 -2 2 -12 -3 -10 -3 -15 2 -11 4 4
15 2 23 -4 13 -11 14 -8 7 22 -4 19 -13 44 -20 55 -7 11 -20 44 -30 72 -9 29
-21 55 -26 58 -5 4 -9 14 -9 23 0 33 47 -33 55 -76z m-5100 60 c6 -4 8 -25 4
-47 -6 -42 -15 -33 -22 23 -4 32 0 38 18 24z m2772 -32 c-1 -11 -4 -20 -8 -20
-4 0 -9 9 -12 20 -3 13 0 20 8 20 8 0 13 -9 12 -20z m-2890 -12 c-3 -8 -6 -5
-6 6 -1 11 2 17 5 13 3 -3 4 -12 1 -19z m253 13 c0 -12 -20 -25 -27 -18 -7 7
6 27 18 27 5 0 9 -4 9 -9z m4867 -34 c-2 -6 2 -24 10 -39 9 -18 10 -28 3 -28
-6 0 -8 -4 -5 -10 9 -14 -7 -12 -28 4 -20 15 -31 97 -15 107 14 9 41 -17 35
-34z m183 22 c-11 -8 -12 -12 -2 -16 6 -2 10 -9 6 -14 -3 -5 0 -9 5 -9 6 0 11
-4 11 -10 0 -23 -29 -7 -39 21 -14 41 -15 39 12 39 18 0 19 -2 7 -11z m-2388
-38 c15 -18 15 -19 -3 -24 -12 -3 -19 0 -19 9 0 8 -4 14 -10 14 -5 0 -10 5
-10 10 0 17 24 11 42 -9z m-2698 -17 c5 -14 -9 -54 -19 -54 -3 0 -5 16 -5 35
0 36 13 47 24 19z m7086 1 c-30 -8 -113 -19 -185 -25 -150 -12 -150 -12 -144
-5 3 2 66 12 140 21 73 9 136 18 138 20 2 2 27 4 55 3 l51 -1 -55 -13z m-2120
-25 c0 -5 -4 -10 -10 -10 -5 0 -10 5 -10 10 0 6 5 10 10 10 6 0 10 -4 10 -10z
m140 0 c0 -5 -4 -10 -10 -10 -5 0 -10 5 -10 10 0 6 5 10 10 10 6 0 10 -4 10
-10z m70 -52 c0 -5 -12 -1 -26 8 -19 13 -22 19 -12 25 13 8 38 -14 38 -33z
m-5269 -35 c-9 -16 -10 -15 -11 9 0 14 3 35 8 45 6 15 8 14 10 -9 2 -15 -1
-35 -7 -45z m2799 46 c0 -6 -4 -7 -10 -4 -5 3 -10 11 -10 16 0 6 5 7 10 4 6
-3 10 -11 10 -16z m3763 4 c-7 -2 -19 -2 -25 0 -7 3 -2 5 12 5 14 0 19 -2 13
-5z m-6765 -41 c3 -33 -6 -40 -26 -20 -14 14 -16 42 -2 33 6 -4 7 1 3 11 -4
12 -2 15 8 12 8 -2 15 -19 17 -36z m5232 34 c0 -3 -4 -8 -10 -11 -5 -3 -10 -1
-10 4 0 6 5 11 10 11 6 0 10 -2 10 -4z m-1713 -68 c-3 -8 -6 -5 -6 6 -1 11 2
17 5 13 3 -3 4 -12 1 -19z m-500 -20 c-3 -8 -6 -5 -6 6 -1 11 2 17 5 13 3 -3
4 -12 1 -19z m5903 -13 c11 -13 10 -14 -4 -9 -9 3 -16 10 -16 15 0 13 6 11 20
-6z m-8930 -17 c25 -27 25 -38 3 -39 -17 -1 -17 -2 0 -6 23 -6 22 -23 -2 -23
-15 0 -20 9 -23 45 -2 25 -2 45 -1 45 1 0 11 -10 23 -22z m230 12 c0 -5 -5
-10 -11 -10 -5 0 -7 5 -4 10 3 6 8 10 11 10 2 0 4 -4 4 -10z m-83 -62 c-3 -7
-5 -2 -5 12 0 14 2 19 5 13 2 -7 2 -19 0 -25z m4073 -8 c0 -5 -4 -10 -9 -10
-6 0 -13 5 -16 10 -3 6 1 10 9 10 9 0 16 -4 16 -10z m-3894 -37 c-11 -11 -19
6 -11 24 8 17 8 17 12 0 3 -10 2 -21 -1 -24z m-2 -21 c-6 -4 -17 -24 -23 -44
-7 -21 -17 -40 -22 -43 -5 -4 -9 -14 -9 -24 0 -9 -7 -26 -15 -37 -15 -18 -16
-17 -9 16 3 19 10 37 15 40 4 3 13 27 19 53 10 38 17 47 34 47 12 0 16 -3 10
-8z m-158 -38 c-3 -9 -6 -22 -6 -30 0 -8 -4 -14 -10 -14 -11 0 -14 43 -3 53
12 13 25 7 19 -9z m3008 1 c3 -8 1 -15 -4 -15 -6 0 -10 7 -10 15 0 8 2 15 4
15 2 0 6 -7 10 -15z m731 5 c3 -5 1 -10 -4 -10 -6 0 -11 5 -11 10 0 6 2 10 4
10 3 0 8 -4 11 -10z m-4025 -35 c33 -19 10 -19 -26 0 -16 8 -22 15 -14 15 8
-1 26 -7 40 -15z m154 -22 c-2 -38 -4 -41 -13 -18 -9 21 -4 45 8 45 4 0 6 -12
5 -27z m-174 -3 c0 -5 -2 -10 -4 -10 -3 0 -8 5 -11 10 -3 6 -1 10 4 10 6 0 11
-4 11 -10z m3350 -77 c0 -32 -5 -28 -14 10 -4 19 -3 26 4 22 5 -3 10 -18 10
-32z m-3323 -25 c-3 -8 -6 -5 -6 6 -1 11 2 17 5 13 3 -3 4 -12 1 -19z m353 2
c0 -5 -4 -10 -10 -10 -5 0 -10 5 -10 10 0 6 5 10 10 10 6 0 10 -4 10 -10z
m2869 -52 c13 -38 14 -48 2 -48 -5 0 -13 15 -16 33 -4 17 -12 38 -18 45 -7 9
-6 11 6 6 9 -3 20 -19 26 -36z m-2889 -5 c-11 -17 -11 -17 -6 0 3 10 6 24 7
30 0 9 2 9 5 0 3 -7 0 -20 -6 -30z m-420 -13 c0 -5 -5 -10 -11 -10 -5 0 -7 5
-4 10 3 6 8 10 11 10 2 0 4 -4 4 -10z m9470 -30 c0 -4 -8 -10 -19 -13 -14 -3
-17 0 -14 14 5 17 33 16 33 -1z m-9104 -36 c-4 -14 -9 -24 -12 -21 -3 2 -2 17
2 31 3 15 9 25 11 22 3 -3 2 -17 -1 -32z m8657 29 c-7 -2 -21 -2 -30 0 -10 3
-4 5 12 5 17 0 24 -2 18 -5z m-5687 -31 c-3 -2 1 -14 9 -26 16 -22 21 -67 6
-50 -4 5 -16 31 -24 58 -14 41 -14 46 -1 36 8 -7 12 -15 10 -18z m-3347 14
c-2 -2 -20 -6 -39 -10 -25 -4 -31 -3 -20 4 14 9 69 15 59 6z m91 -16 c0 -5 -4
-10 -9 -10 -6 0 -13 5 -16 10 -3 6 1 10 9 10 9 0 16 -4 16 -10z m320 1 c0 -6
-4 -13 -10 -16 -5 -3 -10 1 -10 9 0 9 5 16 10 16 6 0 10 -4 10 -9z m-358 -30
c17 -15 17 -16 1 -22 -16 -5 -83 28 -83 42 0 11 63 -4 82 -20z m-82 -27 c0 -8
-4 -12 -10 -9 -5 3 -10 10 -10 16 0 5 5 9 10 9 6 0 10 -7 10 -16z m9324 -2 c4
-8 -97 -42 -121 -42 -12 0 90 48 104 49 6 1 14 -3 17 -7z m-8684 -32 c41 -5
120 -14 175 -19 103 -11 142 -16 210 -27 53 -9 57 -10 220 -23 179 -15 185
-17 185 -42 0 -20 -4 -21 -57 -15 -32 3 -85 10 -118 15 -33 6 -91 13 -130 16
-87 7 -245 30 -305 44 -98 24 -145 29 -152 17 -6 -7 -10 -8 -15 -1 -5 6 -24
12 -43 13 -19 1 -59 7 -87 13 -29 6 -57 8 -63 4 -5 -3 -10 1 -10 10 0 18 8 17
190 -5z m2775 -20 c3 -5 1 -10 -4 -10 -6 0 -11 5 -11 10 0 6 2 10 4 10 3 0 8
-4 11 -10z m5758 3 c-7 -2 -21 -2 -30 0 -10 3 -4 5 12 5 17 0 24 -2 18 -5z
m-163 -28 c-58 -13 -135 -31 -171 -40 -76 -17 -99 -19 -99 -7 0 5 50 17 110
27 61 9 129 23 151 29 22 7 56 13 77 13 20 1 -10 -9 -68 -22z m-360 -60 c-14
-7 -27 -11 -30 -9 -6 7 22 24 40 23 9 0 5 -6 -10 -14z m-7120 -15 c0 -15 -7
-20 -28 -20 -34 0 -43 7 -35 26 3 8 18 14 34 14 22 0 29 -5 29 -20z m205 0
c128 -18 175 -27 182 -34 9 -9 -6 -8 -147 9 -69 8 -128 15 -132 15 -5 0 -8 7
-8 16 0 10 6 13 18 10 9 -3 49 -10 87 -16z m1750 -9 c3 -5 -3 -11 -12 -14 -15
-3 -14 -6 7 -15 14 -6 19 -11 12 -11 -8 -1 -10 -9 -6 -26 3 -14 2 -25 -3 -25
-10 0 -43 69 -43 88 0 14 36 16 45 3z m-1482 -38 c-7 -2 -19 -2 -25 0 -7 3 -2
5 12 5 14 0 19 -2 13 -5z m143 -3 c35 0 64 -4 64 -9 0 -10 -122 -3 -165 10
-30 9 -30 9 4 4 18 -3 62 -5 97 -5z m189 -11 c44 -1 342 -19 400 -24 28 -3
104 -7 169 -9 83 -4 122 -9 128 -18 6 -11 10 -10 17 1 7 10 22 12 67 6 33 -4
73 -9 89 -10 82 -5 231 -28 240 -36 12 -12 -4 -11 -80 1 -33 6 -100 11 -150
11 -49 1 -94 4 -100 7 -5 4 -44 5 -85 4 -46 -1 -67 2 -56 6 12 5 -38 9 -120
10 -224 1 -481 17 -520 32 -14 6 -46 10 -72 11 -36 0 -42 2 -27 9 11 5 31 7
45 4 14 -2 39 -4 55 -5z m-705 -49 c0 -5 -4 -10 -10 -10 -5 0 -10 5 -10 10 0
6 5 10 10 10 6 0 10 -4 10 -10z m1887 -46 c-3 -3 -12 -4 -19 -1 -8 3 -5 6 6 6
11 1 17 -2 13 -5z m316 -191 c-7 -2 -19 -2 -25 0 -7 3 -2 5 12 5 14 0 19 -2
13 -5z m507 -2 c0 -12 -184 -23 -188 -11 -2 6 -10 6 -20 1 -33 -17 -109 -8
-81 10 17 10 289 11 289 0z m90 -1 c0 -5 -13 -10 -29 -10 -17 0 -33 5 -36 10
-4 6 8 10 29 10 20 0 36 -4 36 -10z"/>
<path d="M5290 6791 c0 -6 5 -13 10 -16 6 -3 10 1 10 9 0 9 -4 16 -10 16 -5 0
-10 -4 -10 -9z"/>
<path d="M7238 6633 c-15 -9 -34 -33 -42 -52 -17 -37 -66 -223 -66 -247 0 -22
-49 -94 -68 -101 -53 -20 -91 -54 -98 -88 -3 -19 -10 -38 -14 -40 -10 -6 -1
-75 10 -90 5 -5 11 -28 15 -50 4 -22 18 -67 30 -100 13 -33 35 -99 50 -147 14
-47 35 -96 46 -109 10 -12 19 -25 19 -29 0 -3 13 -19 28 -36 58 -61 92 -113
116 -178 19 -54 36 -79 83 -124 77 -76 121 -112 133 -112 5 0 10 -5 10 -11 0
-12 29 -37 91 -79 44 -30 70 -62 89 -110 8 -19 17 -37 21 -40 21 -15 51 -107
145 -450 17 -64 73 -246 84 -275 4 -11 15 -65 25 -120 9 -55 27 -136 41 -180
13 -44 26 -96 30 -115 12 -67 46 -171 61 -185 19 -19 33 -11 26 15 -6 22 7 26
24 9 25 -25 18 13 -22 121 -24 63 -47 136 -50 163 -4 26 -11 47 -17 47 -5 0
-7 3 -4 8 2 4 -2 32 -11 62 -8 30 -19 73 -23 95 -14 63 -37 154 -58 230 -51
179 -72 255 -72 264 0 5 -5 22 -11 38 -12 28 -19 67 -28 150 0 6 -8 18 -16 27
-13 13 -13 16 0 29 11 12 12 17 2 20 -6 3 -2 6 10 6 16 1 21 -3 17 -14 -4 -9
-1 -15 7 -15 8 0 5 -6 -7 -16 -16 -13 -16 -15 -2 -10 14 4 20 -4 29 -37 6 -23
20 -67 30 -97 10 -30 25 -84 33 -120 8 -36 21 -84 30 -107 9 -23 18 -57 21
-75 3 -18 11 -51 17 -73 6 -22 12 -49 13 -60 7 -83 52 -245 67 -245 5 0 8 11
8 25 0 14 -5 25 -11 25 -6 0 -9 6 -6 13 2 6 -2 32 -9 57 -7 25 -16 61 -19 80
-3 19 -13 69 -22 110 -9 41 -17 82 -18 90 -4 31 -18 85 -24 95 -10 14 -28 74
-36 115 -4 19 -18 73 -32 120 -38 126 -42 147 -30 159 11 11 -11 16 -63 12
l-25 -1 25 16 c24 14 24 15 3 11 -13 -3 -26 -1 -29 4 -3 5 7 9 23 10 28 1 28
1 -5 10 -18 5 -30 14 -27 19 3 5 -6 17 -20 26 -28 18 -33 34 -10 34 8 0 15 3
15 8 0 11 -91 53 -101 46 -5 -3 -6 1 -3 9 3 10 -9 26 -33 43 -21 16 -41 34
-45 40 -4 6 -47 39 -95 73 -103 71 -133 96 -133 109 0 5 -9 17 -20 27 -11 10
-20 22 -20 27 0 9 -17 36 -99 163 -14 22 -30 43 -36 47 -5 4 -6 8 -1 8 5 0 0
8 -11 18 -30 26 -77 144 -88 221 -3 18 -16 66 -30 106 -31 88 -35 153 -13 187
16 25 114 78 144 78 21 0 62 -28 113 -76 43 -42 48 -71 10 -59 -11 4 -25 2
-32 -3 -7 -5 -29 -15 -49 -21 -43 -14 -49 -31 -30 -89 10 -29 22 -46 39 -53
30 -11 36 -11 28 0 -3 5 12 15 32 21 21 7 43 16 48 20 13 9 105 34 108 29 28
-49 37 -70 37 -86 0 -50 -100 -101 -172 -88 -24 4 -59 8 -78 10 -41 4 -71 37
-91 99 -7 22 -14 42 -15 44 -4 7 -54 -11 -54 -19 0 -5 8 -17 18 -27 9 -10 28
-32 42 -50 44 -56 127 -104 189 -109 68 -6 78 -6 116 1 17 3 22 3 13 0 -25 -8
-22 -22 5 -27 21 -4 21 -4 -3 -6 -23 -2 -23 -3 -5 -10 14 -6 29 -2 48 12 34
23 50 17 120 -47 69 -62 109 -96 113 -96 3 0 38 -25 78 -55 40 -30 77 -55 83
-55 6 0 9 -14 6 -32 -2 -18 2 -42 8 -54 9 -17 5 -33 -20 -86 -17 -36 -31 -68
-31 -73 0 -16 28 17 34 41 4 15 11 22 18 18 7 -4 8 -3 4 4 -4 7 0 22 8 34 14
20 15 17 15 -45 -1 -37 5 -83 11 -102 7 -20 9 -43 6 -51 -4 -10 -1 -14 6 -11
8 2 12 17 10 38 -14 160 0 264 40 299 39 34 312 103 327 83 3 -4 26 -9 50 -10
24 -2 50 -8 57 -14 7 -6 19 -9 26 -6 9 4 7 6 -4 6 -9 1 -25 11 -35 24 -10 12
-39 33 -65 46 -32 17 -44 29 -40 39 4 11 1 14 -12 9 -10 -4 -15 -3 -11 4 4 6
29 8 61 5 62 -6 73 9 14 19 -22 4 -40 11 -40 16 0 5 -8 9 -18 9 -26 0 -50 29
-54 65 -3 26 0 30 20 29 26 -1 30 13 5 19 -10 3 -4 5 13 6 18 0 34 7 38 16 3
8 4 15 3 15 -2 0 -29 -5 -61 -11 -71 -13 -127 -4 -159 24 -33 29 -60 52 -75
61 -20 12 -14 -19 8 -44 12 -13 18 -30 16 -37 -3 -7 -1 -13 5 -13 6 0 9 -7 5
-15 -3 -9 0 -15 9 -15 36 0 5 -36 -42 -49 -15 -4 -30 -16 -32 -26 -3 -16 2
-17 40 -13 24 3 53 9 63 14 13 5 17 4 13 -3 -4 -7 7 -13 27 -17 40 -8 51 -28
33 -64 -12 -26 -15 -27 -89 -25 -65 3 -84 7 -125 33 -26 16 -58 34 -70 39 -15
7 -24 23 -29 48 -4 21 -10 43 -14 48 -5 6 -11 27 -15 48 -6 32 -5 36 9 31 12
-5 15 -2 10 10 -3 9 -11 16 -16 16 -6 0 -5 6 2 15 10 12 9 15 -4 15 -13 0 -15
4 -6 19 5 11 19 22 29 26 23 7 18 35 -6 35 -8 0 -11 5 -7 11 3 6 14 9 23 6 29
-7 135 11 146 25 12 16 232 71 287 72 21 1 38 4 38 8 0 19 -56 18 -138 -1 -49
-12 -93 -21 -97 -21 -11 0 127 72 142 74 23 4 26 16 4 16 -12 0 -39 -9 -60
-20 -56 -28 -306 -110 -347 -113 -20 -1 -34 -7 -34 -15 0 -7 -10 -17 -22 -22
-13 -5 -18 -9 -12 -9 7 -1 12 -39 13 -113 1 -113 -9 -159 -28 -128 -6 8 -13
11 -17 8 -15 -16 -78 49 -105 107 -23 51 -27 77 -30 170 -2 61 -8 114 -14 118
-7 6 -6 10 2 13 7 3 10 11 7 18 -3 8 3 27 13 44 17 27 23 30 62 27 24 -2 53 1
65 6 15 6 10 7 -18 2 -30 -4 -37 -3 -31 7 6 9 28 11 79 8 40 -3 62 -2 51 3
-16 6 -14 8 13 8 17 1 32 6 32 11 0 6 5 10 11 10 5 0 7 -4 4 -10 -4 -6 8 -10
29 -10 20 0 36 4 36 9 0 5 8 12 18 14 15 4 14 5 -2 6 -19 1 -19 1 -1 15 16 12
22 12 42 -1 13 -9 27 -13 31 -9 3 4 0 11 -8 16 -12 8 -10 10 8 10 12 0 22 -4
22 -10 0 -5 16 -12 35 -16 34 -6 40 -13 36 -42 -2 -9 4 -12 18 -7 27 8 94 -55
84 -81 -4 -12 -2 -15 8 -12 20 7 51 -11 43 -24 -4 -6 -3 -8 3 -5 6 4 25 -7 42
-23 17 -17 31 -28 31 -25 0 2 22 -7 49 -20 41 -21 52 -33 75 -84 14 -32 26
-61 26 -64 0 -4 22 -53 49 -109 44 -94 62 -135 66 -148 0 -3 4 -14 8 -25 3
-11 8 -31 11 -45 2 -14 10 -47 17 -74 11 -45 8 -217 -7 -311 -13 -90 -40 -205
-47 -205 -4 0 -24 -11 -45 -24 -20 -14 -49 -28 -64 -31 -15 -4 -33 -14 -40
-23 -12 -14 -8 -15 32 -9 25 3 39 4 33 1 -7 -3 -13 -10 -13 -14 0 -11 65 -30
103 -30 23 0 27 -4 27 -27 1 -47 28 -157 39 -161 6 -2 9 -7 6 -12 -2 -4 2 -29
9 -56 8 -27 18 -75 21 -107 4 -31 11 -60 16 -63 5 -3 9 -14 9 -25 0 -18 81
-263 108 -329 6 -14 23 -59 37 -100 15 -41 42 -115 60 -165 18 -49 36 -106 39
-126 7 -42 19 -54 59 -64 26 -7 27 -5 27 28 0 19 -13 61 -30 93 -16 32 -30 63
-30 68 0 5 -18 51 -41 103 -37 87 -60 160 -135 418 -14 50 -40 142 -59 205
-18 63 -36 142 -40 175 -3 33 -13 87 -22 120 -21 81 -19 245 4 332 13 53 17
104 15 227 -2 161 -15 239 -48 277 -8 8 -14 20 -14 25 0 5 -11 26 -25 46 -13
20 -36 67 -50 105 -26 67 -83 180 -108 209 -22 27 -32 35 -114 92 -72 51 -132
103 -198 173 -30 32 -120 69 -168 69 -26 0 -108 22 -205 55 -89 30 -168 55
-176 55 -7 0 -43 13 -79 30 -167 75 -275 96 -329 63z m169 -67 c21 -7 71 -23
111 -36 39 -12 72 -25 72 -29 0 -4 -44 -18 -97 -30 -54 -12 -106 -28 -117 -36
-19 -14 -20 -37 -11 -227 1 -32 -1 -58 -4 -58 -3 0 -31 28 -63 62 -63 68 -76
109 -64 191 8 53 36 148 49 165 13 16 77 15 124 -2z m432 -144 c31 -14 65 -29
76 -33 17 -6 17 -7 3 -8 -10 -1 -18 -5 -18 -11 0 -5 -15 -10 -32 -11 -32 -1
-32 -1 -8 -10 23 -8 22 -8 -7 -6 -18 2 -30 0 -27 -5 3 -4 -5 -9 -18 -12 -13
-2 -52 -10 -88 -17 -36 -8 -68 -14 -72 -14 -3 0 -10 -4 -15 -8 -4 -5 -23 -15
-42 -23 -30 -13 -33 -17 -27 -46 8 -50 9 -180 1 -211 l-7 -27 -57 61 c-91 100
-88 93 -74 209 6 47 5 72 -4 90 -23 45 -16 68 23 85 20 8 46 15 58 14 20 0 21
-1 1 -9 -14 -6 -15 -9 -4 -9 8 -1 19 3 25 8 10 11 65 16 183 18 62 2 84 -3
130 -25z m138 -58 c-3 -3 -12 -4 -19 -1 -8 3 -5 6 6 6 11 1 17 -2 13 -5z m23
-334 c-8 -5 -22 -10 -30 -10 -13 0 -13 1 0 10 8 5 22 10 30 10 13 0 13 -1 0
-10z m-725 -230 c3 -5 1 -10 -4 -10 -6 0 -11 5 -11 10 0 6 2 10 4 10 3 0 8 -4
11 -10z m359 -75 c8 -8 20 -15 26 -15 10 0 92 -58 144 -101 49 -41 60 -49 69
-49 14 0 36 -32 37 -52 0 -10 -7 -18 -15 -18 -8 0 -15 4 -15 8 0 5 -12 14 -26
21 -15 6 -24 15 -20 18 3 3 -22 25 -57 49 -71 48 -188 154 -170 154 6 0 18 -7
27 -15z m296 -135 c0 -5 -2 -10 -4 -10 -3 0 -8 5 -11 10 -3 6 -1 10 4 10 6 0
11 -4 11 -10z m-365 -441 c11 -10 34 -29 50 -43 17 -14 26 -26 20 -26 -5 0
-22 10 -37 23 -15 13 -38 32 -52 43 -14 10 -26 22 -26 27 0 10 17 0 45 -24z
m1030 -179 c-21 -9 -17 -11 25 -13 16 -1 26 -9 28 -22 l4 -20 -17 20 c-11 14
-18 16 -21 8 -8 -19 -27 -16 -46 6 -18 21 -10 29 27 30 l20 0 -20 -9z"/>
<path d="M7540 6426 c0 -2 7 -7 16 -10 8 -3 12 -2 9 4 -6 10 -25 14 -25 6z"/>
<path d="M7758 6423 c7 -3 16 -2 19 1 4 3 -2 6 -13 5 -11 0 -14 -3 -6 -6z"/>
<path d="M7905 6070 c-3 -6 1 -7 9 -4 18 7 21 14 7 14 -6 0 -13 -4 -16 -10z"/>
<path d="M7917 5976 c-4 -9 -2 -16 4 -16 6 0 7 -4 4 -10 -3 -5 1 -10 9 -10 20
0 20 10 3 34 -12 17 -14 17 -20 2z"/>
<path d="M7217 5849 c7 -7 15 -10 18 -7 3 3 -2 9 -12 12 -14 6 -15 5 -6 -5z"/>
<path d="M8366 5775 c4 -8 7 -15 9 -15 2 0 5 7 9 15 3 9 0 15 -9 15 -9 0 -12
-6 -9 -15z"/>
<path d="M7984 5026 c-18 -46 28 -79 116 -83 30 -2 73 -4 94 -6 25 -1 40 3 42
11 1 7 0 8 -2 3 -10 -18 -144 25 -144 46 0 7 -8 13 -17 13 -10 0 -27 7 -37 15
-25 19 -45 19 -52 1z"/>
<path d="M8004 4917 c-3 -8 -3 -28 0 -44 17 -84 48 -214 61 -255 8 -26 15 -53
15 -60 0 -7 11 -51 25 -98 14 -47 36 -132 50 -189 13 -57 27 -106 30 -109 15
-16 16 15 0 75 -22 91 -66 254 -73 273 -3 8 -6 20 -7 25 -2 6 -7 28 -13 50 -6
22 -13 54 -16 70 -3 17 -8 43 -12 59 -3 16 -8 40 -9 55 -4 32 -35 154 -41 160
-2 2 -6 -3 -10 -12z"/>
<path d="M8095 4813 c4 -21 10 -42 14 -48 5 -5 13 -23 19 -40 6 -16 27 -75 47
-130 20 -55 45 -128 56 -162 11 -35 24 -63 29 -63 13 0 13 0 -4 48 -8 22 -12
43 -9 46 4 3 1 6 -5 6 -6 0 -14 17 -18 38 -4 20 -14 53 -23 72 -8 19 -16 40
-17 45 -1 6 -3 12 -4 15 -1 3 -4 16 -6 30 -3 13 -9 29 -14 34 -6 6 -10 16 -10
24 0 17 -48 122 -56 122 -3 0 -3 -17 1 -37z"/>
<path d="M8955 4800 c-3 -5 -1 -10 4 -10 6 0 11 5 11 10 0 6 -2 10 -4 10 -3 0
-8 -4 -11 -10z"/>
<path d="M5428 4773 c6 -2 18 -2 25 0 6 3 1 5 -13 5 -14 0 -19 -2 -12 -5z"/>
<path d="M8665 4410 c-3 -5 -1 -10 4 -10 6 0 11 5 11 10 0 6 -2 10 -4 10 -3 0
-8 -4 -11 -10z"/>
<path d="M8260 4350 c0 -5 9 -33 21 -62 12 -29 25 -64 30 -77 5 -13 12 -21 15
-19 2 3 -5 31 -16 62 -12 30 -19 60 -15 66 3 5 1 10 -4 10 -6 0 -11 7 -11 15
0 8 -4 15 -10 15 -5 0 -10 -4 -10 -10z"/>
<path d="M8326 4167 c3 -10 9 -15 12 -12 3 3 0 11 -7 18 -10 9 -11 8 -5 -6z"/>
<path d="M8197 4103 c9 -27 23 -57 31 -68 8 -11 12 -13 10 -5 -29 90 -41 120
-48 120 -5 0 -2 -21 7 -47z"/>
<path d="M8350 4095 c0 -5 5 -17 10 -25 5 -8 10 -10 10 -5 0 6 -5 17 -10 25
-5 8 -10 11 -10 5z"/>
<path d="M8376 4030 c3 -14 10 -29 15 -34 14 -16 10 6 -7 34 l-15 25 7 -25z"/>
<path d="M6068 4023 c7 -3 16 -2 19 1 4 3 -2 6 -13 5 -11 0 -14 -3 -6 -6z"/>
<path d="M8235 3983 c4 -38 46 -176 58 -188 13 -14 3 37 -34 178 -11 43 -28
50 -24 10z"/>
<path d="M8079 3966 c-7 -7 18 -146 27 -155 3 -3 3 17 -1 44 -12 82 -20 117
-26 111z"/>
<path d="M8407 3940 c3 -11 9 -20 15 -20 5 0 4 9 -2 20 -6 11 -12 20 -14 20
-2 0 -2 -9 1 -20z"/>
<path d="M8435 3877 c8 -47 36 -116 42 -100 2 6 -3 26 -12 43 -9 18 -14 37
-12 44 3 6 -2 21 -9 31 -13 18 -14 16 -9 -18z"/>
<path d="M9120 3830 c0 -5 5 -10 10 -10 6 0 10 5 10 10 0 6 -4 10 -10 10 -5 0
-10 -4 -10 -10z"/>
<path d="M8486 3735 c19 -30 26 -28 17 3 -3 12 -12 22 -19 22 -12 0 -11 -5 2
-25z"/>
<path d="M8120 3740 c0 -8 9 -44 20 -78 11 -35 18 -68 15 -72 -3 -5 -1 -11 4
-14 21 -13 21 18 0 87 -22 71 -39 105 -39 77z"/>
<path d="M6332 3628 c5 -15 28 -18 29 -3 0 6 -7 12 -17 13 -10 3 -15 -1 -12
-10z"/>
<path d="M6520 3590 c0 -6 7 -10 15 -10 8 0 15 2 15 4 0 2 -7 6 -15 10 -8 3
-15 1 -15 -4z"/>
<path d="M6460 3550 c0 -5 7 -7 15 -4 8 4 15 8 15 10 0 2 -7 4 -15 4 -8 0 -15
-4 -15 -10z"/>
<path d="M6402 3488 c6 -18 28 -21 28 -4 0 9 -7 16 -16 16 -9 0 -14 -5 -12
-12z"/>
<path d="M6175 3470 c3 -5 13 -10 21 -10 8 0 12 5 9 10 -3 6 -13 10 -21 10 -8
0 -12 -4 -9 -10z"/>
<path d="M3940 5955 c0 -8 4 -15 10 -15 5 0 7 7 4 15 -4 8 -8 15 -10 15 -2 0
-4 -7 -4 -15z"/>
<path d="M3837 4943 c18 -9 36 -13 40 -10 9 10 3 13 -37 20 l-35 6 32 -16z"/>
<path d="M4630 3345 c-25 -14 -25 -14 13 -15 26 0 37 4 35 12 -6 18 -20 19
-48 3z"/>
<path d="M4490 3080 c-12 -8 -11 -10 7 -10 12 0 25 5 28 10 8 13 -15 13 -35 0z"/>
<path d="M3555 2880 c-3 -5 -2 -10 4 -10 5 0 13 5 16 10 3 6 2 10 -4 10 -5 0
-13 -4 -16 -10z"/>
<path d="M4660 2854 c0 -8 5 -12 10 -9 6 4 8 11 5 16 -9 14 -15 11 -15 -7z"/>
<path d="M6115 6390 c3 -5 8 -10 11 -10 2 0 4 5 4 10 0 6 -5 10 -11 10 -5 0
-7 -4 -4 -10z"/>
<path d="M5984 6252 c0 -11 8 -19 21 -20 14 -1 16 1 7 7 -8 5 -13 12 -12 17 1
5 -2 10 -7 11 -5 2 -9 -5 -9 -15z"/>
<path d="M6401 6175 c-1 -24 15 -52 24 -43 4 3 0 19 -9 35 -13 23 -15 24 -15
8z"/>
<path d="M6339 6135 c9 -19 22 -34 29 -35 15 0 15 0 -4 38 -23 46 -47 43 -25
-3z"/>
<path d="M6280 6115 c0 -12 24 -55 32 -55 9 0 10 7 2 38 -4 12 -13 22 -20 22
-8 0 -14 -2 -14 -5z"/>
<path d="M6501 6071 c22 -30 49 -41 49 -21 0 6 -7 10 -15 10 -8 0 -15 4 -15
10 0 5 -9 14 -21 20 -20 11 -20 11 2 -19z"/>
<path d="M5990 6072 c0 -18 12 -42 21 -42 13 0 4 43 -9 48 -7 2 -12 -1 -12 -6z"/>
<path d="M6450 6076 c0 -2 7 -7 16 -10 8 -3 12 -2 9 4 -6 10 -25 14 -25 6z"/>
<path d="M5938 6064 c-7 -6 14 -54 23 -54 8 0 -1 49 -11 55 -4 2 -10 2 -12 -1z"/>
<path d="M5860 6046 c0 -7 7 -19 15 -26 16 -13 20 -3 9 24 -8 20 -24 21 -24 2z"/>
<path d="M6224 6045 c3 -9 6 -21 6 -26 0 -5 7 -9 16 -9 23 0 14 44 -10 48 -14
3 -17 0 -12 -13z"/>
<path d="M6096 6042 c-6 -10 24 -72 35 -72 12 0 11 10 -2 49 -11 30 -23 39
-33 23z"/>
<path d="M6173 6043 c-9 -3 -9 -10 -1 -29 14 -29 24 -31 31 -4 5 21 -11 40
-30 33z"/>
<path d="M6419 6022 c5 -10 17 -24 25 -32 24 -19 21 12 -2 33 -24 22 -35 21
-23 -1z"/>
<path d="M5782 6013 c2 -9 8 -18 15 -20 7 -3 9 3 6 16 -6 25 -26 28 -21 4z"/>
<path d="M6360 6011 c0 -19 26 -48 36 -39 7 8 -14 58 -26 58 -5 0 -10 -8 -10
-19z"/>
<path d="M5704 5988 c3 -17 8 -34 11 -36 11 -11 16 9 10 37 -9 42 -29 41 -21
-1z"/>
<path d="M6320 6000 c0 -18 30 -83 36 -78 8 9 -15 88 -26 88 -6 0 -10 -5 -10
-10z"/>
<path d="M6537 5979 c16 -18 33 -37 38 -43 13 -14 50 -100 65 -148 14 -47 32
-60 24 -18 -4 19 -2 30 5 30 6 0 11 -6 11 -14 0 -8 7 -16 15 -20 12 -4 13 -2
6 12 -5 9 -11 22 -13 27 -1 6 -7 9 -11 7 -13 -4 -30 19 -66 88 -36 69 -68 110
-89 110 -6 0 0 -14 15 -31z"/>
<path d="M5650 5991 c0 -6 4 -12 10 -16 5 -3 7 -12 3 -20 -3 -8 0 -15 6 -15
12 0 14 20 5 44 -7 17 -24 22 -24 7z"/>
<path d="M5980 5982 c0 -5 7 -17 15 -28 15 -19 20 -8 9 20 -6 17 -24 22 -24 8z"/>
<path d="M5850 5969 c0 -19 37 -55 47 -45 4 3 -5 19 -20 34 -20 19 -27 22 -27
11z"/>
<path d="M6470 5971 c0 -4 10 -21 22 -36 19 -25 33 -85 19 -85 -14 1 -37 28
-54 63 -9 21 -21 36 -26 33 -10 -7 27 -86 40 -86 4 0 14 -18 20 -40 15 -48 33
-54 24 -7 -6 30 -5 31 10 13 14 -18 15 -18 15 -2 0 9 -5 26 -10 37 -14 25 -5
24 22 -1 27 -25 38 -25 31 -1 -3 11 -13 21 -23 24 -9 2 -28 25 -40 51 -21 40
-50 62 -50 37z"/>
<path d="M5806 5938 c41 -48 44 -51 44 -36 0 22 -30 58 -47 58 -14 0 -13 -3 3
-22z"/>
<path d="M6277 5930 c6 -22 23 -38 23 -21 0 17 -12 41 -20 41 -5 0 -6 -9 -3
-20z"/>
<path d="M5971 5890 c19 -34 39 -52 39 -35 0 11 -26 61 -35 67 -23 17 -25 5
-4 -32z"/>
<path d="M6065 5913 c4 -10 12 -34 17 -53 15 -53 30 -62 24 -15 -7 60 -17 85
-33 85 -10 0 -13 -5 -8 -17z"/>
<path d="M6115 5903 c4 -10 12 -30 17 -45 5 -16 14 -28 18 -28 8 0 7 11 -5 60
-2 8 -4 18 -4 23 -1 4 -8 7 -17 7 -11 0 -14 -5 -9 -17z"/>
<path d="M6408 5868 c22 -43 28 -49 30 -31 4 30 -19 77 -40 81 -14 3 -12 -6
10 -50z"/>
<path d="M5756 5902 c7 -4 20 -25 29 -47 9 -22 19 -35 22 -28 8 21 -25 83 -44
83 -11 0 -14 -3 -7 -8z"/>
<path d="M6200 5895 c0 -2 9 -19 19 -36 16 -26 20 -28 23 -13 2 11 -3 27 -12
37 -14 16 -30 23 -30 12z"/>
<path d="M6330 5887 c0 -14 31 -47 44 -47 4 0 -1 14 -11 30 -18 32 -33 39 -33
17z"/>
<path d="M5920 5884 c0 -19 24 -84 32 -84 11 0 10 5 -4 51 -6 22 -15 39 -20
39 -4 0 -8 -3 -8 -6z"/>
<path d="M6270 5874 c0 -12 46 -84 53 -84 5 0 7 3 5 8 -2 4 -10 24 -18 45 -8
20 -20 37 -27 37 -7 0 -13 -2 -13 -6z"/>
<path d="M5700 5861 c0 -16 22 -61 30 -61 12 0 -5 63 -18 68 -6 2 -12 -1 -12
-7z"/>
<path d="M6583 5807 c3 -9 9 -32 13 -52 3 -20 10 -33 14 -28 12 12 -3 86 -19
91 -10 3 -12 0 -8 -11z"/>
<path d="M6387 5770 c3 -11 10 -23 16 -27 7 -4 8 0 4 11 -4 10 -7 22 -7 27 0
5 -4 9 -9 9 -5 0 -7 -9 -4 -20z"/>
<path d="M5826 5755 c10 -42 23 -75 28 -75 14 0 0 72 -16 87 -19 17 -19 17
-12 -12z"/>
<path d="M6447 5750 c3 -10 11 -25 19 -31 17 -14 18 -8 2 26 -13 30 -28 34
-21 5z"/>
<path d="M6004 5725 c17 -48 42 -72 31 -30 -4 17 -7 38 -7 48 0 10 -6 17 -17
17 -17 0 -17 -3 -7 -35z"/>
<path d="M6094 5738 c1 -22 36 -40 36 -19 0 6 -4 11 -10 11 -5 0 -9 5 -7 11 1
6 -3 13 -9 16 -6 2 -11 -6 -10 -19z"/>
<path d="M6170 5746 c0 -7 7 -19 15 -26 16 -13 20 -3 9 24 -8 20 -24 21 -24 2z"/>
<path d="M6260 5740 c0 -11 5 -20 10 -20 6 0 10 9 10 20 0 11 -4 20 -10 20 -5
0 -10 -9 -10 -20z"/>
<path d="M6310 5745 c0 -8 4 -15 10 -15 5 0 7 7 4 15 -4 8 -8 15 -10 15 -2 0
-4 -7 -4 -15z"/>
<path d="M5910 5738 c1 -14 24 -48 33 -48 3 0 1 14 -4 30 -11 30 -29 41 -29
18z"/>
<path d="M6531 5704 c14 -38 19 -45 29 -39 9 6 -20 65 -32 65 -4 0 -3 -12 3
-26z"/>
<path d="M6662 5702 c46 -104 67 -126 40 -42 -9 28 -22 50 -30 50 -7 0 -12 -3
-10 -8z"/>
<path d="M6620 5681 c0 -18 44 -101 53 -101 5 0 6 8 2 18 -4 9 -13 33 -20 52
-12 33 -35 53 -35 31z"/>
<path d="M6410 5666 c0 -7 7 -19 15 -26 8 -7 13 -16 10 -20 -2 -4 2 -16 10
-26 14 -19 14 -19 15 0 0 32 -23 86 -37 86 -7 0 -13 -6 -13 -14z"/>
<path d="M6340 5658 c0 -16 33 -88 41 -88 5 0 5 10 0 23 -4 12 -6 29 -3 37 3
8 1 12 -3 8 -4 -4 -14 0 -21 10 -7 9 -14 14 -14 10z"/>
<path d="M6521 5651 c-12 -8 -12 -14 2 -42 18 -39 32 -22 19 23 -5 20 -11 25
-21 19z"/>
<path d="M6270 5629 c0 -24 21 -79 30 -79 14 0 3 61 -14 78 -14 14 -16 15 -16
1z"/>
<path d="M6076 5593 c7 -38 15 -48 26 -29 5 10 5 23 -2 36 -15 29 -30 25 -24
-7z"/>
<path d="M6175 5610 c-4 -6 -1 -10 4 -10 6 0 11 -9 11 -19 0 -18 17 -38 25
-30 2 2 1 16 -2 31 -5 28 -28 44 -38 28z"/>
<path d="M5971 5603 c0 -5 7 -24 14 -43 l13 -35 1 43 c1 31 -3 42 -14 42 -8 0
-15 -3 -14 -7z"/>
<path d="M6612 5584 c3 -17 21 -21 26 -6 1 5 -4 12 -13 16 -11 4 -15 1 -13
-10z"/>
<path d="M6716 5551 c-8 -12 4 -44 21 -54 7 -4 13 -15 13 -22 0 -8 5 -15 11
-15 6 0 9 6 6 13 -2 6 -10 29 -18 50 -13 37 -23 45 -33 28z"/>
<path d="M6479 5545 c-8 -7 13 -85 22 -85 8 0 3 36 -9 70 -4 11 -10 18 -13 15z"/>
<path d="M6563 5526 c4 -10 7 -22 7 -27 0 -5 5 -9 11 -9 15 0 7 43 -10 48 -10
3 -12 0 -8 -12z"/>
<path d="M6180 5512 c0 -10 4 -22 9 -27 5 -6 11 -19 14 -30 3 -13 5 -9 6 12 1
36 -7 63 -20 63 -5 0 -9 -8 -9 -18z"/>
<path d="M6394 5513 c4 -9 10 -37 13 -60 7 -49 23 -68 23 -27 0 37 -21 104
-33 104 -5 0 -6 -8 -3 -17z"/>
<path d="M6110 5479 c0 -17 4 -28 10 -24 6 3 10 17 10 31 0 13 -4 24 -10 24
-5 0 -10 -14 -10 -31z"/>
<path d="M6268 5504 c-3 -5 -1 -20 4 -34 6 -14 12 -20 14 -14 6 15 -11 60 -18
48z"/>
<path d="M5922 5489 c2 -6 8 -10 13 -10 5 0 11 4 13 10 2 6 -4 11 -13 11 -9 0
-15 -5 -13 -11z"/>
<path d="M6683 5465 c6 -20 18 -40 28 -45 9 -5 22 -32 29 -60 15 -61 33 -67
24 -7 -7 44 -29 85 -42 77 -4 -3 -12 11 -18 30 -6 19 -16 36 -22 38 -7 2 -7
-8 1 -33z"/>
<path d="M6635 5455 c6 -34 23 -61 32 -51 5 5 -19 70 -30 81 -6 7 -7 -4 -2
-30z"/>
<path d="M6135 5413 c4 -10 8 -25 9 -33 1 -8 6 -15 11 -15 9 0 8 42 -2 58 -9
15 -25 6 -18 -10z"/>
<path d="M6256 5408 c-8 -31 -8 -38 3 -38 12 0 22 43 12 53 -5 5 -11 -2 -15
-15z"/>
<path d="M6040 5401 c0 -5 6 -11 14 -14 8 -3 17 -19 21 -36 4 -17 11 -31 16
-31 12 0 12 3 -7 50 -9 22 -22 40 -30 40 -8 0 -14 -4 -14 -9z"/>
<path d="M6537 5404 c-7 -7 34 -94 44 -94 9 0 -19 88 -31 95 -4 2 -10 2 -13
-1z"/>
<path d="M6451 5350 c0 -29 23 -77 32 -63 3 5 -3 27 -13 48 -16 35 -18 37 -19
15z"/>
<path d="M6350 5343 c0 -5 5 -25 11 -47 7 -26 14 -35 21 -28 12 12 -8 82 -23
82 -5 0 -9 -3 -9 -7z"/>
<path d="M6150 5331 c0 -17 18 -21 24 -6 3 9 0 15 -9 15 -8 0 -15 -4 -15 -9z"/>
<path d="M6671 5325 c-1 -21 15 -52 23 -45 2 3 -2 19 -9 35 -10 23 -14 25 -14
10z"/>
<path d="M6717 5320 c3 -11 9 -17 14 -15 10 7 1 35 -11 35 -5 0 -6 -9 -3 -20z"/>
<path d="M6290 5290 c0 -27 12 -60 21 -60 5 0 6 12 3 28 -8 31 -24 54 -24 32z"/>
<path d="M6138 5283 c6 -2 12 -11 12 -18 0 -18 26 -66 32 -59 3 3 1 23 -4 44
-8 31 -15 40 -32 39 -11 0 -15 -3 -8 -6z"/>
<path d="M6240 5273 c0 -19 11 -43 21 -43 13 0 11 14 -6 36 -8 10 -15 14 -15
7z"/>
<path d="M6610 5273 c1 -22 30 -88 40 -91 13 -5 6 48 -12 81 -9 17 -28 24 -28
10z"/>
<path d="M6811 5253 c6 -16 13 -46 15 -68 3 -22 10 -44 15 -50 12 -12 1 102
-13 128 -14 28 -29 20 -17 -10z"/>
<path d="M6553 5214 c6 -20 13 -31 15 -25 6 17 -7 61 -17 61 -5 0 -4 -16 2
-36z"/>
<path d="M6770 5238 c0 -7 5 -20 10 -28 8 -12 10 -11 10 7 0 12 -4 25 -10 28
-5 3 -10 0 -10 -7z"/>
<path d="M6472 5190 c6 -22 14 -40 19 -40 12 0 11 10 -2 49 -16 45 -29 38 -17
-9z"/>
<path d="M6276 5170 c4 -14 8 -33 8 -42 0 -27 16 -22 16 5 0 13 -7 32 -16 43
-14 18 -15 18 -8 -6z"/>
<path d="M6145 5170 c-3 -5 -2 -10 3 -10 5 0 16 -17 24 -37 7 -21 17 -33 20
-28 7 12 -21 85 -32 85 -5 0 -12 -4 -15 -10z"/>
<path d="M6430 5171 c0 -12 26 -32 33 -25 9 10 -4 34 -19 34 -8 0 -14 -4 -14
-9z"/>
<path d="M6690 5166 c0 -9 5 -16 10 -16 6 0 10 4 10 9 0 6 -4 13 -10 16 -5 3
-10 -1 -10 -9z"/>
<path d="M6367 5150 c6 -22 23 -38 23 -21 0 17 -12 41 -20 41 -5 0 -6 -9 -3
-20z"/>
<path d="M6797 5150 c3 -11 7 -20 9 -20 2 0 4 9 4 20 0 11 -4 20 -9 20 -5 0
-7 -9 -4 -20z"/>
<path d="M6600 5138 c0 -8 9 -23 20 -33 16 -15 20 -15 20 -3 0 8 -9 23 -20 33
-16 15 -20 15 -20 3z"/>
<path d="M6535 5096 c21 -32 37 -34 26 -3 -5 12 -16 24 -25 25 -17 4 -17 2 -1
-22z"/>
<path d="M6795 5103 c4 -10 14 -37 22 -60 8 -24 19 -46 25 -49 13 -8 0 63 -19
99 -15 30 -40 38 -28 10z"/>
<path d="M6400 5081 c0 -12 4 -21 8 -21 5 0 14 -12 21 -26 17 -39 23 -23 8 21
-15 43 -37 58 -37 26z"/>
<path d="M6477 5075 c23 -32 36 -32 21 0 -6 14 -17 25 -25 25 -11 0 -10 -6 4
-25z"/>
<path d="M6750 5081 c0 -7 5 -31 12 -52 11 -40 28 -53 28 -21 -1 21 -39 93
-40 73z"/>
<path d="M6310 5071 c0 -19 23 -71 31 -71 12 0 11 10 -2 49 -10 28 -29 43 -29
22z"/>
<path d="M6243 5048 c2 -13 22 -38 30 -38 2 0 2 11 -1 25 -2 14 -11 25 -18 25
-8 0 -13 -6 -11 -12z"/>
<path d="M6656 5051 c-3 -4 3 -16 14 -26 20 -18 25 -11 14 19 -7 18 -20 21
-28 7z"/>
<path d="M6625 5025 c7 -33 12 -41 21 -33 3 4 -2 19 -11 35 l-16 28 6 -30z"/>
<path d="M6485 4983 c7 -21 19 -39 26 -42 8 -2 10 2 5 15 -5 11 -9 25 -10 33
-1 7 -9 17 -18 22 -14 8 -14 4 -3 -28z"/>
<path d="M6560 5009 c0 -9 7 -22 15 -29 19 -16 19 0 0 26 -12 16 -14 16 -15 3z"/>
<path d="M6771 4940 c6 -16 15 -30 19 -30 5 0 4 14 -1 30 -6 17 -15 30 -19 30
-5 0 -4 -13 1 -30z"/>
<path d="M6154 4918 c2 -18 -1 -38 -6 -45 -5 -6 -5 -14 1 -17 5 -4 12 -3 14 1
10 19 16 63 11 77 -10 27 -22 18 -20 -16z"/>
<path d="M6606 4942 c-7 -11 21 -78 30 -70 2 3 -2 22 -9 43 -8 23 -16 34 -21
27z"/>
<path d="M6261 4913 c0 -41 16 -112 19 -88 3 19 3 59 1 98 -2 29 -21 19 -20
-10z"/>
<path d="M6710 4914 c6 -14 8 -30 4 -35 -3 -5 0 -9 5 -9 6 0 11 5 11 11 0 5 5
7 10 4 6 -3 10 -23 10 -43 0 -46 15 -73 23 -43 7 29 -13 101 -28 101 -7 0 -15
9 -18 20 -3 11 -10 20 -16 20 -7 0 -7 -8 -1 -26z"/>
<path d="M6840 4930 c0 -5 5 -10 10 -10 6 0 10 5 10 10 0 6 -4 10 -10 10 -5 0
-10 -4 -10 -10z"/>
<path d="M6363 4889 c3 -23 11 -47 18 -53 9 -8 10 -5 5 14 -3 14 -6 37 -6 53
0 15 -5 27 -11 27 -8 0 -10 -14 -6 -41z"/>
<path d="M6460 4898 c1 -7 7 -26 15 -43 l13 -30 1 27 c1 14 -2 33 -5 42 -7 19
-24 21 -24 4z"/>
<path d="M6852 4898 c2 -6 10 -14 16 -16 7 -2 10 2 6 12 -7 18 -28 22 -22 4z"/>
<path d="M6841 4853 c0 -4 4 -17 9 -28 8 -19 9 -19 9 2 1 12 -3 25 -9 28 -5 3
-10 3 -9 -2z"/>
<path d="M6591 4808 c7 -13 16 -36 20 -53 l7 -30 1 33 c1 36 -14 72 -30 72 -6
0 -5 -9 2 -22z"/>
<path d="M6817 4823 c-4 -6 0 -19 8 -29 11 -15 14 -16 15 -4 0 21 -16 44 -23
33z"/>
<path d="M6680 4802 c0 -4 8 -15 18 -23 9 -9 22 -25 29 -35 10 -16 12 -16 12
-3 1 19 -36 69 -50 69 -5 0 -9 -3 -9 -8z"/>
<path d="M6470 4777 c0 -10 7 -25 15 -33 21 -21 21 5 0 32 -13 18 -14 18 -15
1z"/>
<path d="M6566 4753 c7 -39 11 -49 18 -42 7 8 -7 79 -16 79 -5 0 -6 -16 -2
-37z"/>
<path d="M6638 4766 c-3 -13 -2 -30 2 -36 4 -7 10 0 13 17 3 15 2 32 -2 36 -5
5 -11 -3 -13 -17z"/>
<path d="M6256 4767 c3 -10 9 -15 12 -12 3 3 0 11 -7 18 -10 9 -11 8 -5 -6z"/>
<path d="M6370 4765 c0 -12 32 -67 36 -63 7 7 -17 68 -27 68 -5 0 -9 -2 -9 -5z"/>
<path d="M6860 4745 c0 -9 7 -32 15 -51 8 -20 12 -40 9 -46 -3 -5 2 -8 11 -6
12 2 22 -11 37 -49 11 -29 24 -53 29 -53 12 0 12 8 -6 68 -12 39 -20 52 -35
52 -14 0 -21 9 -25 38 -4 20 -8 43 -10 50 -6 17 -25 15 -25 -3z"/>
<path d="M6810 4730 c0 -5 5 -10 10 -10 6 0 10 5 10 10 0 6 -4 10 -10 10 -5 0
-10 -4 -10 -10z"/>
<path d="M6461 4708 c0 -7 9 -33 20 -58 l20 -45 -6 40 c-3 22 -8 48 -11 58 -6
19 -24 23 -23 5z"/>
<path d="M6783 4700 c3 -14 9 -49 13 -77 3 -29 10 -50 15 -47 14 8 -2 117 -18
134 -14 13 -15 12 -10 -10z"/>
<path d="M6325 4693 c4 -10 10 -26 12 -35 3 -10 10 -18 15 -18 6 0 7 8 3 18
-4 9 -10 25 -12 35 -3 9 -10 17 -15 17 -6 0 -7 -8 -3 -17z"/>
<path d="M6530 4698 c0 -29 13 -58 25 -58 10 0 11 8 2 35 -10 34 -27 48 -27
23z"/>
<path d="M6730 4686 c0 -14 5 -28 10 -31 6 -3 10 5 10 19 0 14 -4 28 -10 31
-6 3 -10 -5 -10 -19z"/>
<path d="M6630 4676 c0 -8 5 -18 11 -21 6 -4 8 -13 5 -21 -3 -8 -1 -24 4 -36
9 -24 11 -22 15 30 1 17 -1 32 -6 32 -5 0 -8 5 -6 11 1 6 -4 14 -10 16 -7 3
-13 -2 -13 -11z"/>
<path d="M6406 4655 c4 -11 14 -29 22 -40 13 -19 14 -19 7 5 -4 14 -14 32 -22
40 -12 13 -13 13 -7 -5z"/>
<path d="M6866 4618 c23 -69 24 -71 29 -66 8 7 -25 108 -35 108 -5 0 -2 -19 6
-42z"/>
<path d="M6270 4610 c0 -5 5 -10 10 -10 6 0 10 5 10 10 0 6 -4 10 -10 10 -5 0
-10 -4 -10 -10z"/>
<path d="M6990 4610 c0 -6 9 -28 20 -50 11 -22 20 -48 20 -59 0 -11 4 -22 9
-25 5 -3 12 -20 15 -38 7 -38 41 -86 52 -75 8 8 -15 169 -27 189 -7 10 -11 10
-21 0 -9 -9 -9 -15 -2 -20 10 -7 47 -142 41 -148 -2 -2 -23 50 -47 116 -23 66
-47 120 -52 120 -4 0 -8 -5 -8 -10z"/>
<path d="M6518 4605 c-6 -7 7 -73 16 -82 3 -4 6 9 6 28 0 35 -12 64 -22 54z"/>
<path d="M6574 4584 c4 -11 10 -34 13 -52 3 -19 10 -29 15 -24 12 12 -5 85
-21 90 -10 3 -12 0 -7 -14z"/>
<path d="M6778 4534 c15 -41 17 -43 20 -21 3 28 -13 67 -28 67 -5 0 -1 -21 8
-46z"/>
<path d="M6435 4535 c8 -37 25 -57 25 -29 0 11 -7 29 -16 40 -15 18 -15 18 -9
-11z"/>
<path d="M6630 4552 c0 -17 39 -87 40 -71 0 25 -21 79 -31 79 -5 0 -9 -4 -9
-8z"/>
<path d="M6704 4515 c6 -19 15 -35 20 -35 4 0 5 8 1 18 -4 9 -10 25 -12 35 -3
9 -9 17 -13 17 -4 0 -2 -16 4 -35z"/>
<path d="M6500 4513 c0 -13 5 -23 10 -23 13 0 13 11 0 30 -8 12 -10 11 -10 -7z"/>
<path d="M6890 4503 c0 -5 4 -15 10 -23 11 -18 25 -7 17 15 -6 15 -27 21 -27
8z"/>
<path d="M6585 4470 c3 -14 8 -37 11 -52 4 -16 10 -28 15 -28 14 0 10 22 -11
65 -13 25 -18 31 -15 15z"/>
<path d="M6940 4474 c1 -20 39 -97 39 -79 1 14 -24 83 -32 91 -4 4 -7 -1 -7
-12z"/>
<path d="M6383 4453 c8 -42 27 -86 33 -80 7 6 -25 107 -33 107 -3 0 -3 -12 0
-27z"/>
<path d="M6825 4453 c8 -31 13 -39 20 -31 9 9 -6 58 -17 58 -6 0 -7 -11 -3
-27z"/>
<path d="M7006 4433 c8 -31 33 -91 34 -83 7 32 7 60 -1 60 -5 0 -8 3 -8 8 4
24 -3 42 -16 42 -12 0 -14 -7 -9 -27z"/>
<path d="M6690 4375 c0 -25 4 -45 9 -45 5 0 11 20 13 45 2 31 -1 45 -9 45 -9
0 -13 -16 -13 -45z"/>
<path d="M6540 4373 c0 -18 2 -33 4 -33 9 0 13 39 5 51 -6 10 -9 4 -9 -18z"/>
<path d="M6768 4378 c-7 -18 1 -66 12 -73 5 -3 11 4 15 14 7 24 -19 81 -27 59z"/>
<path d="M6600 4359 c0 -5 5 -7 10 -4 6 3 10 8 10 11 0 2 -4 4 -10 4 -5 0 -10
-5 -10 -11z"/>
<path d="M6898 4340 c15 -27 42 -41 42 -22 0 15 -32 52 -45 52 -11 0 -11 -6 3
-30z"/>
<path d="M6455 4340 c-3 -5 -1 -10 4 -10 6 0 11 5 11 10 0 6 -2 10 -4 10 -3 0
-8 -4 -11 -10z"/>
<path d="M6540 4322 c0 -5 7 -17 15 -28 15 -19 20 -8 9 20 -6 17 -24 22 -24 8z"/>
<path d="M6636 4297 c2 -48 5 -55 13 -27 8 26 3 60 -8 60 -3 0 -5 -15 -5 -33z"/>
<path d="M6840 4303 c0 -19 39 -75 40 -57 0 6 -5 25 -11 43 -12 34 -29 42 -29
14z"/>
<path d="M6680 4287 c0 -8 5 -17 10 -19 17 -5 40 -82 27 -90 -8 -5 -8 -13 0
-30 6 -13 16 -36 20 -52 11 -35 34 -48 28 -16 -2 12 -7 29 -10 39 -3 9 -7 35
-9 57 -4 44 -26 93 -50 113 -13 11 -16 11 -16 -2z"/>
<path d="M7140 4275 c0 -9 8 -30 17 -48 14 -26 18 -29 21 -13 2 10 -1 23 -7
29 -6 6 -11 19 -11 29 0 10 -4 18 -10 18 -5 0 -10 -7 -10 -15z"/>
<path d="M6980 4261 c0 -6 4 -12 9 -16 5 -3 12 -19 16 -35 4 -17 13 -30 21
-30 9 0 14 3 12 8 -36 74 -58 101 -58 73z"/>
<path d="M6920 4241 c0 -21 64 -145 68 -133 6 18 -20 102 -31 102 -5 0 -6 8
-3 17 4 10 4 14 0 10 -4 -4 -13 -2 -21 4 -9 9 -13 8 -13 0z"/>
<path d="M6615 4201 c3 -24 10 -51 16 -60 7 -11 8 -3 3 29 -3 25 -11 52 -16
60 -6 10 -7 1 -3 -29z"/>
<path d="M6792 4208 c13 -40 28 -59 28 -36 0 26 -18 68 -29 68 -6 0 -6 -12 1
-32z"/>
<path d="M6534 4165 c14 -40 26 -55 26 -32 0 21 -21 67 -30 67 -4 0 -2 -16 4
-35z"/>
<path d="M7027 4158 c4 -7 8 -16 8 -20 0 -7 14 -12 16 -5 2 9 -15 37 -23 37
-5 0 -6 -6 -1 -12z"/>
<path d="M6670 4132 c1 -9 26 -42 33 -42 11 0 -6 39 -19 44 -8 3 -14 2 -14 -2z"/>
<path d="M7150 4136 c0 -2 10 -22 23 -45 18 -31 26 -38 35 -29 15 15 16 32 2
23 -6 -4 -15 7 -21 24 -6 17 -17 31 -25 31 -8 0 -14 -2 -14 -4z"/>
<path d="M6890 4108 c0 -7 9 -24 20 -38 19 -24 20 -25 20 -3 0 12 -7 29 -16
37 -19 19 -24 20 -24 4z"/>
<path d="M6655 4059 c19 -36 29 -33 19 5 -3 14 -13 26 -20 26 -12 0 -12 -5 1
-31z"/>
<path d="M6830 4063 c16 -56 33 -88 37 -73 2 9 -3 32 -12 52 -18 45 -37 60
-25 21z"/>
<path d="M6992 4064 c-2 -32 27 -92 38 -75 7 12 -19 101 -30 101 -3 0 -7 -12
-8 -26z"/>
<path d="M6496 4035 c4 -8 8 -15 10 -15 2 0 4 7 4 15 0 8 -4 15 -10 15 -5 0
-7 -7 -4 -15z"/>
<path d="M6592 4042 c2 -5 17 -39 33 -75 29 -65 45 -83 45 -52 0 8 -5 15 -12
15 -6 0 -8 3 -5 7 4 3 2 11 -3 18 -5 6 -11 20 -14 31 -10 46 -19 64 -33 64 -8
0 -13 -4 -11 -8z"/>
<path d="M6936 4031 c-8 -13 9 -54 29 -71 15 -12 16 -11 10 16 -12 54 -16 64
-25 64 -5 0 -11 -4 -14 -9z"/>
<path d="M6756 4011 c-13 -20 25 -83 40 -68 6 5 -22 77 -30 77 -3 0 -7 -4 -10
-9z"/>
<path d="M7073 3959 c14 -39 26 -59 37 -59 9 0 22 -11 28 -25 6 -14 16 -25 22
-25 6 0 1 18 -10 40 -11 22 -24 40 -29 40 -12 0 -42 60 -36 70 3 4 -4 10 -14
13 -19 5 -19 3 2 -54z"/>
<path d="M7232 3985 c6 -14 17 -25 25 -25 17 0 17 6 -4 30 -24 28 -35 25 -21
-5z"/>
<path d="M7260 4000 c0 -5 5 -10 11 -10 5 0 7 5 4 10 -3 6 -8 10 -11 10 -2 0
-4 -4 -4 -10z"/>
<path d="M6515 3980 c3 -5 8 -10 11 -10 2 0 4 5 4 10 0 6 -5 10 -11 10 -5 0
-7 -4 -4 -10z"/>
<path d="M6680 3952 c0 -22 37 -82 50 -82 14 0 12 13 -5 36 -8 10 -15 26 -15
35 0 9 -7 19 -15 23 -10 3 -15 -1 -15 -12z"/>
<path d="M6590 3900 c8 -43 16 -57 27 -47 8 9 -15 87 -26 87 -5 0 -5 -18 -1
-40z"/>
<path d="M6947 3906 c-6 -15 31 -82 40 -73 6 7 -15 75 -27 82 -4 3 -10 -1 -13
-9z"/>
<path d="M7026 3912 c-2 -4 5 -23 17 -42 24 -38 35 -25 15 20 -13 30 -23 37
-32 22z"/>
<path d="M6790 3890 c0 -17 19 -50 29 -50 13 0 -3 53 -17 58 -7 2 -12 -2 -12
-8z"/>
<path d="M7127 3843 c4 -10 17 -33 30 -52 26 -38 31 -101 9 -101 -16 0 -30
-50 -22 -77 3 -10 7 -35 11 -57 3 -21 10 -46 15 -55 8 -13 9 -12 10 7 0 13 4
20 10 17 16 -10 12 21 -5 35 -16 14 -21 55 -5 45 10 -6 12 3 13 70 1 89 -3
136 -13 130 -5 -3 -16 8 -25 25 -16 32 -39 42 -28 13z"/>
<path d="M7090 3806 c0 -8 9 -24 20 -37 l19 -24 -11 38 c-11 36 -28 51 -28 23z"/>
<path d="M7034 3793 c3 -10 8 -29 11 -43 6 -26 45 -60 45 -40 0 5 -4 10 -10
10 -5 0 -10 8 -10 18 0 23 -22 72 -33 72 -5 0 -6 -8 -3 -17z"/>
<path d="M6960 3791 c0 -5 6 -27 14 -49 8 -22 12 -43 9 -46 -4 -3 2 -6 11 -6
15 0 17 5 11 28 -10 37 -13 55 -14 70 -1 13 -31 17 -31 3z"/>
<path d="M6890 3778 c0 -33 14 -88 21 -88 7 0 7 40 0 93 -2 12 -21 8 -21 -5z"/>
<path d="M6630 3761 c0 -27 46 -141 59 -146 22 -8 26 3 8 22 -8 10 -21 39 -27
65 -12 45 -40 87 -40 59z"/>
<path d="M6736 3733 c8 -33 12 -39 20 -30 9 9 -5 57 -16 57 -6 0 -8 -11 -4
-27z"/>
<path d="M6788 3722 c-2 -16 2 -34 9 -41 11 -9 13 -4 13 29 0 46 -16 54 -22
12z"/>
<path d="M7085 3680 c3 -5 -1 -10 -10 -10 -11 0 -14 -6 -9 -25 4 -15 2 -25 -5
-25 -12 0 -15 -33 -4 -44 5 -4 12 -26 18 -49 5 -22 15 -42 22 -44 9 -3 10 4 3
26 -7 24 -6 31 6 31 9 0 14 -11 14 -32 0 -44 10 -29 12 18 0 22 -7 57 -17 79
-9 22 -17 50 -17 63 0 12 -5 22 -10 22 -5 0 -6 -4 -3 -10z"/>
<path d="M6962 3628 c3 -24 25 -54 34 -46 7 8 -17 68 -28 68 -5 0 -8 -10 -6
-22z"/>
<path d="M6860 3626 c0 -16 45 -98 47 -86 5 21 -24 90 -37 90 -6 0 -10 -2 -10
-4z"/>
<path d="M6777 3564 c-5 -5 15 -51 41 -93 1 -2 4 -2 7 1 7 6 -25 98 -34 98 -4
0 -10 -3 -14 -6z"/>
<path d="M6927 3553 c-12 -11 -8 -23 8 -23 8 0 15 7 15 15 0 16 -12 20 -23 8z"/>
<path d="M6688 3504 c-2 -25 0 -48 4 -50 5 -3 8 3 8 12 0 16 1 16 15 -2 13
-18 14 -17 15 18 0 78 -36 98 -42 22z"/>
<path d="M7027 3494 c3 -7 9 -14 14 -14 14 0 10 17 -5 23 -10 4 -13 1 -9 -9z"/>
<path d="M7280 3531 c0 -5 7 -11 15 -15 8 -3 15 -1 15 3 0 5 -7 11 -15 15 -8
3 -15 1 -15 -3z"/>
<path d="M4235 8460 c-3 -5 -1 -10 4 -10 6 0 11 5 11 10 0 6 -2 10 -4 10 -3 0
-8 -4 -11 -10z"/>
<path d="M11490 2906 c0 -2 7 -9 15 -16 13 -11 14 -10 9 4 -5 14 -24 23 -24
12z"/>
<path d="M2520 2690 c0 -5 5 -10 10 -10 6 0 10 5 10 10 0 6 -4 10 -10 10 -5 0
-10 -4 -10 -10z"/>
<path d="M5568 2343 c7 -3 16 -2 19 1 4 3 -2 6 -13 5 -11 0 -14 -3 -6 -6z"/>
</g>
</svg>
